<svg xmlns="http://www.w3.org/2000/svg" xmlns:xlink="http://www.w3.org/1999/xlink" width="500" zoomAndPan="magnify" viewBox="0 0 375 374.999991" height="500" preserveAspectRatio="xMidYMid meet" version="1.0"><defs><g/><clipPath id="4fb6fc2449"><path d="M 29.652344 151.769531 L 85.570312 151.769531 L 85.570312 207.757812 L 29.652344 207.757812 Z M 29.652344 151.769531 " clip-rule="nonzero"/></clipPath><clipPath id="3303da5962"><path d="M 51.195312 203.582031 L 83.457031 203.582031 L 83.457031 223.011719 L 51.195312 223.011719 Z M 51.195312 203.582031 " clip-rule="nonzero"/></clipPath><clipPath id="6edb250cbb"><rect x="0" width="251" y="0" height="62"/></clipPath></defs><rect x="-37.5" width="450" fill="#ffffff" y="-37.499999" height="449.999989" fill-opacity="1"/><rect x="-37.5" width="450" fill="#ffffff" y="-37.499999" height="449.999989" fill-opacity="1"/><g clip-path="url(#4fb6fc2449)"><path fill="#1677ff" d="M 48.070312 202.484375 C 40.871094 198.417969 36.011719 190.695312 36.011719 181.835938 C 36.011719 168.742188 46.625 158.128906 59.714844 158.128906 C 66.953125 158.128906 73.429688 161.371094 77.777344 166.484375 L 85.570312 166.484375 C 80.328125 157.671875 70.710938 151.769531 59.714844 151.769531 C 43.113281 151.769531 29.652344 165.230469 29.652344 181.835938 C 29.652344 192.84375 35.570312 202.464844 44.394531 207.703125 L 48.070312 202.484375 " fill-opacity="1" fill-rule="nonzero"/></g><g clip-path="url(#3303da5962)"><path fill="#1677ff" d="M 66.742188 204.480469 C 66.476562 204.5625 66.214844 204.640625 65.945312 204.710938 L 51.226562 210.683594 C 52.230469 210.976562 53.257812 211.222656 54.300781 211.414062 L 83.421875 223.222656 L 69.625 203.644531 C 68.683594 203.984375 67.722656 204.265625 66.742188 204.480469 " fill-opacity="1" fill-rule="nonzero"/></g><path fill="#1677ff" d="M 61.953125 198.054688 C 70.527344 198.054688 77.476562 191.101562 77.476562 182.527344 C 77.476562 173.953125 70.527344 167 61.953125 167 C 57.210938 167 52.96875 169.125 50.121094 172.472656 L 45.015625 172.472656 C 48.453125 166.703125 54.75 162.835938 61.953125 162.835938 C 72.828125 162.835938 81.644531 171.652344 81.644531 182.527344 C 81.644531 192.191406 74.679688 200.230469 65.5 201.902344 L 46.425781 209.636719 L 55.554688 196.679688 C 57.507812 197.5625 59.671875 198.054688 61.953125 198.054688 " fill-opacity="1" fill-rule="nonzero"/><path fill="#1677ff" d="M 56.054688 181.835938 C 56.054688 183.246094 54.910156 184.386719 53.5 184.386719 C 52.09375 184.386719 50.949219 183.246094 50.949219 181.835938 C 50.949219 180.425781 52.09375 179.285156 53.5 179.285156 C 54.910156 179.285156 56.054688 180.425781 56.054688 181.835938 " fill-opacity="1" fill-rule="nonzero"/><path fill="#1677ff" d="M 63.738281 181.835938 C 63.738281 183.246094 62.59375 184.386719 61.1875 184.386719 C 59.777344 184.386719 58.632812 183.246094 58.632812 181.835938 C 58.632812 180.425781 59.777344 179.285156 61.1875 179.285156 C 62.59375 179.285156 63.738281 180.425781 63.738281 181.835938 " fill-opacity="1" fill-rule="nonzero"/><path fill="#1677ff" d="M 71.421875 181.835938 C 71.421875 183.246094 70.28125 184.386719 68.871094 184.386719 C 67.460938 184.386719 66.320312 183.246094 66.320312 181.835938 C 66.320312 180.425781 67.460938 179.285156 68.871094 179.285156 C 70.28125 179.285156 71.421875 180.425781 71.421875 181.835938 " fill-opacity="1" fill-rule="nonzero"/><g transform="matrix(1, 0, 0, 1, 96, 156)"><g clip-path="url(#6edb250cbb)"><g fill="#141414" fill-opacity="1"><g transform="translate(0.619531, 45.845926)"><g><path d="M 1.40625 -15.046875 C 1.40625 -18.015625 2.046875 -20.660156 3.328125 -22.984375 C 4.617188 -25.304688 6.410156 -27.113281 8.703125 -28.40625 C 10.992188 -29.707031 13.59375 -30.359375 16.5 -30.359375 C 20.0625 -30.359375 23.109375 -29.414062 25.640625 -27.53125 C 28.179688 -25.644531 29.878906 -23.082031 30.734375 -19.84375 L 22.703125 -19.84375 C 22.097656 -21.09375 21.25 -22.046875 20.15625 -22.703125 C 19.0625 -23.359375 17.816406 -23.6875 16.421875 -23.6875 C 14.160156 -23.6875 12.332031 -22.898438 10.9375 -21.328125 C 9.539062 -19.765625 8.84375 -17.671875 8.84375 -15.046875 C 8.84375 -12.421875 9.539062 -10.320312 10.9375 -8.75 C 12.332031 -7.1875 14.160156 -6.40625 16.421875 -6.40625 C 17.816406 -6.40625 19.0625 -6.734375 20.15625 -7.390625 C 21.25 -8.046875 22.097656 -9.003906 22.703125 -10.265625 L 30.734375 -10.265625 C 29.878906 -7.015625 28.179688 -4.453125 25.640625 -2.578125 C 23.109375 -0.710938 20.0625 0.21875 16.5 0.21875 C 13.59375 0.21875 10.992188 -0.425781 8.703125 -1.71875 C 6.410156 -3.019531 4.617188 -4.828125 3.328125 -7.140625 C 2.046875 -9.453125 1.40625 -12.085938 1.40625 -15.046875 Z M 1.40625 -15.046875 "/></g></g></g><g fill="#141414" fill-opacity="1"><g transform="translate(34.647061, 45.845926)"><g><path d="M 17.3125 -24.109375 C 20.050781 -24.109375 22.242188 -23.203125 23.890625 -21.390625 C 25.546875 -19.585938 26.375 -17.101562 26.375 -13.9375 L 26.375 0 L 19.109375 0 L 19.109375 -12.953125 C 19.109375 -14.546875 18.691406 -15.785156 17.859375 -16.671875 C 17.035156 -17.554688 15.925781 -18 14.53125 -18 C 13.132812 -18 12.019531 -17.554688 11.1875 -16.671875 C 10.363281 -15.785156 9.953125 -14.546875 9.953125 -12.953125 L 9.953125 0 L 2.65625 0 L 2.65625 -31.640625 L 9.953125 -31.640625 L 9.953125 -20.640625 C 10.703125 -21.703125 11.71875 -22.546875 13 -23.171875 C 14.28125 -23.796875 15.71875 -24.109375 17.3125 -24.109375 Z M 17.3125 -24.109375 "/></g></g></g><g fill="#141414" fill-opacity="1"><g transform="translate(64.912792, 45.845926)"><g><path d="M 1.203125 -11.96875 C 1.203125 -14.414062 1.660156 -16.566406 2.578125 -18.421875 C 3.503906 -20.273438 4.765625 -21.703125 6.359375 -22.703125 C 7.960938 -23.703125 9.75 -24.203125 11.71875 -24.203125 C 13.394531 -24.203125 14.867188 -23.859375 16.140625 -23.171875 C 17.410156 -22.484375 18.382812 -21.585938 19.0625 -20.484375 L 19.0625 -23.859375 L 26.375 -23.859375 L 26.375 0 L 19.0625 0 L 19.0625 -3.375 C 18.351562 -2.257812 17.363281 -1.359375 16.09375 -0.671875 C 14.820312 0.00390625 13.347656 0.34375 11.671875 0.34375 C 9.734375 0.34375 7.960938 -0.160156 6.359375 -1.171875 C 4.765625 -2.179688 3.503906 -3.617188 2.578125 -5.484375 C 1.660156 -7.359375 1.203125 -9.519531 1.203125 -11.96875 Z M 19.0625 -11.921875 C 19.0625 -13.742188 18.554688 -15.179688 17.546875 -16.234375 C 16.535156 -17.296875 15.300781 -17.828125 13.84375 -17.828125 C 12.394531 -17.828125 11.164062 -17.304688 10.15625 -16.265625 C 9.144531 -15.222656 8.640625 -13.789062 8.640625 -11.96875 C 8.640625 -10.144531 9.144531 -8.695312 10.15625 -7.625 C 11.164062 -6.5625 12.394531 -6.03125 13.84375 -6.03125 C 15.300781 -6.03125 16.535156 -6.554688 17.546875 -7.609375 C 18.554688 -8.660156 19.0625 -10.097656 19.0625 -11.921875 Z M 19.0625 -11.921875 "/></g></g></g><g fill="#141414" fill-opacity="1"><g transform="translate(95.39226, 45.845926)"><g><path d="M 15.953125 -6.203125 L 15.953125 0 L 12.21875 0 C 9.570312 0 7.507812 -0.644531 6.03125 -1.9375 C 4.550781 -3.238281 3.8125 -5.359375 3.8125 -8.296875 L 3.8125 -17.78125 L 0.890625 -17.78125 L 0.890625 -23.859375 L 3.8125 -23.859375 L 3.8125 -29.671875 L 11.109375 -29.671875 L 11.109375 -23.859375 L 15.90625 -23.859375 L 15.90625 -17.78125 L 11.109375 -17.78125 L 11.109375 -8.203125 C 11.109375 -7.492188 11.28125 -6.984375 11.625 -6.671875 C 11.96875 -6.359375 12.539062 -6.203125 13.34375 -6.203125 Z M 15.953125 -6.203125 "/></g></g></g><g fill="#141414" fill-opacity="1"><g transform="translate(114.20158, 45.845926)"><g><path d="M 9.953125 -20.484375 C 10.640625 -21.585938 11.625 -22.484375 12.90625 -23.171875 C 14.1875 -23.859375 15.65625 -24.203125 17.3125 -24.203125 C 19.28125 -24.203125 21.0625 -23.703125 22.65625 -22.703125 C 24.25 -21.703125 25.507812 -20.273438 26.4375 -18.421875 C 27.363281 -16.566406 27.828125 -14.414062 27.828125 -11.96875 C 27.828125 -9.519531 27.363281 -7.359375 26.4375 -5.484375 C 25.507812 -3.617188 24.25 -2.179688 22.65625 -1.171875 C 21.0625 -0.160156 19.28125 0.34375 17.3125 0.34375 C 15.632812 0.34375 14.164062 0.0078125 12.90625 -0.65625 C 11.65625 -1.332031 10.671875 -2.222656 9.953125 -3.328125 L 9.953125 0 L 2.65625 0 L 2.65625 -31.640625 L 9.953125 -31.640625 Z M 20.390625 -11.96875 C 20.390625 -13.789062 19.882812 -15.222656 18.875 -16.265625 C 17.863281 -17.304688 16.617188 -17.828125 15.140625 -17.828125 C 13.679688 -17.828125 12.445312 -17.296875 11.4375 -16.234375 C 10.425781 -15.179688 9.921875 -13.742188 9.921875 -11.921875 C 9.921875 -10.097656 10.425781 -8.660156 11.4375 -7.609375 C 12.445312 -6.554688 13.679688 -6.03125 15.140625 -6.03125 C 16.585938 -6.03125 17.820312 -6.5625 18.84375 -7.625 C 19.875 -8.695312 20.390625 -10.144531 20.390625 -11.96875 Z M 20.390625 -11.96875 "/></g></g></g><g fill="#141414" fill-opacity="1"><g transform="translate(144.681048, 45.845926)"><g><path d="M 13.515625 0.34375 C 11.171875 0.34375 9.066406 -0.15625 7.203125 -1.15625 C 5.335938 -2.15625 3.867188 -3.578125 2.796875 -5.421875 C 1.734375 -7.273438 1.203125 -9.441406 1.203125 -11.921875 C 1.203125 -14.378906 1.742188 -16.539062 2.828125 -18.40625 C 3.910156 -20.269531 5.390625 -21.703125 7.265625 -22.703125 C 9.148438 -23.703125 11.257812 -24.203125 13.59375 -24.203125 C 15.925781 -24.203125 18.035156 -23.703125 19.921875 -22.703125 C 21.804688 -21.703125 23.285156 -20.269531 24.359375 -18.40625 C 25.441406 -16.539062 25.984375 -14.378906 25.984375 -11.921875 C 25.984375 -9.472656 25.4375 -7.316406 24.34375 -5.453125 C 23.25 -3.585938 21.753906 -2.15625 19.859375 -1.15625 C 17.960938 -0.15625 15.847656 0.34375 13.515625 0.34375 Z M 13.515625 -5.984375 C 14.910156 -5.984375 16.097656 -6.492188 17.078125 -7.515625 C 18.054688 -8.546875 18.546875 -10.015625 18.546875 -11.921875 C 18.546875 -13.835938 18.066406 -15.304688 17.109375 -16.328125 C 16.160156 -17.359375 14.988281 -17.875 13.59375 -17.875 C 12.164062 -17.875 10.984375 -17.363281 10.046875 -16.34375 C 9.109375 -15.332031 8.640625 -13.859375 8.640625 -11.921875 C 8.640625 -10.015625 9.101562 -8.546875 10.03125 -7.515625 C 10.957031 -6.492188 12.117188 -5.984375 13.515625 -5.984375 Z M 13.515625 -5.984375 "/></g></g></g><g fill="#141414" fill-opacity="1"><g transform="translate(173.365111, 45.845926)"><g><path d="M 15.953125 -6.203125 L 15.953125 0 L 12.21875 0 C 9.570312 0 7.507812 -0.644531 6.03125 -1.9375 C 4.550781 -3.238281 3.8125 -5.359375 3.8125 -8.296875 L 3.8125 -17.78125 L 0.890625 -17.78125 L 0.890625 -23.859375 L 3.8125 -23.859375 L 3.8125 -29.671875 L 11.109375 -29.671875 L 11.109375 -23.859375 L 15.90625 -23.859375 L 15.90625 -17.78125 L 11.109375 -17.78125 L 11.109375 -8.203125 C 11.109375 -7.492188 11.28125 -6.984375 11.625 -6.671875 C 11.96875 -6.359375 12.539062 -6.203125 13.34375 -6.203125 Z M 15.953125 -6.203125 "/></g></g></g><g fill="#141414" fill-opacity="1"><g transform="translate(192.17443, 45.845926)"><g/></g></g><g fill="#141414" fill-opacity="1"><g transform="translate(202.690673, 45.845926)"><g><path d="M 21.328125 -5.296875 L 10.125 -5.296875 L 8.34375 0 L 0.6875 0 L 11.546875 -30.015625 L 20 -30.015625 L 30.859375 0 L 23.125 0 Z M 19.453125 -10.9375 L 15.734375 -21.9375 L 12.0625 -10.9375 Z M 19.453125 -10.9375 "/></g></g></g><g fill="#141414" fill-opacity="1"><g transform="translate(235.649512, 45.845926)"><g><path d="M 9.953125 -30.015625 L 9.953125 0 L 2.65625 0 L 2.65625 -30.015625 Z M 9.953125 -30.015625 "/></g></g></g></g></g></svg>