<svg width="424" height="95" viewBox="0 0 424 95" fill="none" xmlns="http://www.w3.org/2000/svg">
<g clip-path="url(#clip0_347_22906)">
<mask id="mask0_347_22906" style="mask-type:luminance" maskUnits="userSpaceOnUse" x="0" y="0" width="75" height="75">
<path d="M0 0H74.5573V74.651H0V0Z" fill="white"/>
</mask>
<g mask="url(#mask0_347_22906)">
<path d="M24.5573 67.6198C14.9583 62.1979 8.47917 51.901 8.47917 40.0885C8.47917 22.6302 22.6302 8.47917 40.0833 8.47917C49.7344 8.47917 58.3698 12.8021 64.1667 19.6198H74.5573C67.5677 7.86979 54.7448 0 40.0833 0C17.9479 0 0 17.9479 0 40.0885C0 54.7656 7.89063 67.5938 19.6563 74.5781L24.5573 67.6198Z" fill="#5856D6"/>
</g>
<mask id="mask1_347_22906" style="mask-type:luminance" maskUnits="userSpaceOnUse" x="28" y="69" width="44" height="26">
<path d="M28.7227 69.084H71.7383V94.9902H28.7227V69.084Z" fill="white"/>
</mask>
<g mask="url(#mask1_347_22906)">
<path d="M49.4512 70.2826C49.097 70.3919 48.748 70.4961 48.3887 70.5898L28.7637 78.5534C30.1022 78.944 31.472 79.2721 32.8626 79.5273L71.6908 95.2721L53.2949 69.168C52.0397 69.6211 50.7585 69.9961 49.4512 70.2826Z" fill="#5856D6"/>
</g>
<path d="M43.0677 61.7142C54.5 61.7142 63.7656 52.4434 63.7656 41.0111C63.7656 29.5788 54.5 20.3079 43.0677 20.3079C36.7448 20.3079 31.0885 23.1413 27.2917 27.6048H20.4844C25.0677 19.9121 33.4635 14.7559 43.0677 14.7559C57.5677 14.7559 69.3229 26.5111 69.3229 41.0111C69.3229 53.8965 60.0365 64.6152 47.7969 66.8444L22.3646 77.1569L34.5365 59.8809C37.1406 61.0579 40.026 61.7142 43.0677 61.7142Z" fill="#5856D6"/>
<path d="M35.2018 40.0885C35.2018 41.9687 33.6758 43.4896 31.7956 43.4896C29.9206 43.4896 28.3945 41.9687 28.3945 40.0885C28.3945 38.2083 29.9206 36.6875 31.7956 36.6875C33.6758 36.6875 35.2018 38.2083 35.2018 40.0885Z" fill="#5856D6"/>
<path d="M45.4479 40.0885C45.4479 41.9687 43.9219 43.4896 42.0469 43.4896C40.1667 43.4896 38.6406 41.9687 38.6406 40.0885C38.6406 38.2083 40.1667 36.6875 42.0469 36.6875C43.9219 36.6875 45.4479 38.2083 45.4479 40.0885Z" fill="#5856D6"/>
<path d="M55.6927 40.0885C55.6927 41.9687 54.1719 43.4896 52.2917 43.4896C50.4115 43.4896 48.8906 41.9687 48.8906 40.0885C48.8906 38.2083 50.4115 36.6875 52.2917 36.6875C54.1719 36.6875 55.6927 38.2083 55.6927 40.0885Z" fill="#5856D6"/>
<path d="M101.6 64.364C98.9306 64.364 96.5386 63.9307 94.424 63.064C92.3093 62.1973 90.6106 60.9147 89.328 59.216C88.08 57.5173 87.4213 55.472 87.352 53.08H96.816C96.9546 54.432 97.4226 55.472 98.22 56.2C99.0173 56.8933 100.057 57.24 101.34 57.24C102.657 57.24 103.697 56.9453 104.46 56.356C105.223 55.732 105.604 54.8827 105.604 53.808C105.604 52.9067 105.292 52.1613 104.668 51.572C104.079 50.9827 103.333 50.4973 102.432 50.116C101.565 49.7347 100.317 49.3013 98.688 48.816C96.3306 48.088 94.4066 47.36 92.916 46.632C91.4253 45.904 90.1426 44.8293 89.068 43.408C87.9933 41.9867 87.456 40.132 87.456 37.844C87.456 34.4467 88.6866 31.7947 91.148 29.888C93.6093 27.9467 96.816 26.976 100.768 26.976C104.789 26.976 108.031 27.9467 110.492 29.888C112.953 31.7947 114.271 34.464 114.444 37.896H104.824C104.755 36.7173 104.321 35.7987 103.524 35.14C102.727 34.4467 101.704 34.1 100.456 34.1C99.3813 34.1 98.5146 34.3947 97.856 34.984C97.1973 35.5387 96.868 36.3533 96.868 37.428C96.868 38.6067 97.4226 39.5253 98.532 40.184C99.6413 40.8427 101.375 41.5533 103.732 42.316C106.089 43.1133 107.996 43.876 109.452 44.604C110.943 45.332 112.225 46.3893 113.3 47.776C114.375 49.1627 114.912 50.948 114.912 53.132C114.912 55.212 114.375 57.1013 113.3 58.8C112.26 60.4987 110.735 61.8507 108.724 62.856C106.713 63.8613 104.339 64.364 101.6 64.364ZM117.616 49.492C117.616 46.476 118.223 43.8413 119.436 41.588C120.684 39.3347 122.4 37.6013 124.584 36.388C126.803 35.1747 129.333 34.568 132.176 34.568C135.816 34.568 138.849 35.5213 141.276 37.428C143.737 39.3347 145.349 42.0213 146.112 45.488H136.648C135.851 43.2693 134.308 42.16 132.02 42.16C130.391 42.16 129.091 42.8013 128.12 44.084C127.149 45.332 126.664 47.1347 126.664 49.492C126.664 51.8493 127.149 53.6693 128.12 54.952C129.091 56.2 130.391 56.824 132.02 56.824C134.308 56.824 135.851 55.7147 136.648 53.496H146.112C145.349 56.8933 143.737 59.5627 141.276 61.504C138.815 63.4453 135.781 64.416 132.176 64.416C129.333 64.416 126.803 63.8093 124.584 62.596C122.4 61.3827 120.684 59.6493 119.436 57.396C118.223 55.1427 117.616 52.508 117.616 49.492ZM163.077 64.416C160.234 64.416 157.669 63.8093 155.381 62.596C153.127 61.3827 151.342 59.6493 150.025 57.396C148.742 55.1427 148.101 52.508 148.101 49.492C148.101 46.5107 148.759 43.8933 150.077 41.64C151.394 39.352 153.197 37.6013 155.485 36.388C157.773 35.1747 160.338 34.568 163.181 34.568C166.023 34.568 168.589 35.1747 170.877 36.388C173.165 37.6013 174.967 39.352 176.285 41.64C177.602 43.8933 178.261 46.5107 178.261 49.492C178.261 52.4733 177.585 55.108 176.233 57.396C174.915 59.6493 173.095 61.3827 170.773 62.596C168.485 63.8093 165.919 64.416 163.077 64.416ZM163.077 56.72C164.775 56.72 166.214 56.096 167.393 54.848C168.606 53.6 169.213 51.8147 169.213 49.492C169.213 47.1693 168.623 45.384 167.445 44.136C166.301 42.888 164.879 42.264 163.181 42.264C161.447 42.264 160.009 42.888 158.865 44.136C157.721 45.3493 157.149 47.1347 157.149 49.492C157.149 51.8147 157.703 53.6 158.813 54.848C159.957 56.096 161.378 56.72 163.077 56.72ZM190.87 39.092C191.737 37.74 192.933 36.648 194.458 35.816C195.983 34.984 197.769 34.568 199.814 34.568C202.206 34.568 204.373 35.1747 206.314 36.388C208.255 37.6013 209.781 39.3347 210.89 41.588C212.034 43.8413 212.606 46.4587 212.606 49.44C212.606 52.4213 212.034 55.056 210.89 57.344C209.781 59.5973 208.255 61.348 206.314 62.596C204.373 63.8093 202.206 64.416 199.814 64.416C197.803 64.416 196.018 64 194.458 63.168C192.933 62.336 191.737 61.2613 190.87 59.944V77.832H181.978V34.984H190.87V39.092ZM203.558 49.44C203.558 47.2213 202.934 45.488 201.686 44.24C200.473 42.9573 198.965 42.316 197.162 42.316C195.394 42.316 193.886 42.9573 192.638 44.24C191.425 45.5227 190.818 47.2733 190.818 49.492C190.818 51.7107 191.425 53.4613 192.638 54.744C193.886 56.0267 195.394 56.668 197.162 56.668C198.93 56.668 200.438 56.0267 201.686 54.744C202.934 53.4267 203.558 51.6587 203.558 49.44ZM243.623 49.024C243.623 49.856 243.571 50.7227 243.467 51.624H223.343C223.482 53.4267 224.054 54.8133 225.059 55.784C226.099 56.72 227.364 57.188 228.855 57.188C231.074 57.188 232.616 56.252 233.483 54.38H242.947C242.462 56.2867 241.578 58.0027 240.295 59.528C239.047 61.0533 237.47 62.2493 235.563 63.116C233.656 63.9827 231.524 64.416 229.167 64.416C226.324 64.416 223.794 63.8093 221.575 62.596C219.356 61.3827 217.623 59.6493 216.375 57.396C215.127 55.1427 214.503 52.508 214.503 49.492C214.503 46.476 215.11 43.8413 216.323 41.588C217.571 39.3347 219.304 37.6013 221.523 36.388C223.742 35.1747 226.29 34.568 229.167 34.568C231.975 34.568 234.471 35.1573 236.655 36.336C238.839 37.5147 240.538 39.196 241.751 41.38C242.999 43.564 243.623 46.112 243.623 49.024ZM234.523 46.684C234.523 45.1587 234.003 43.9453 232.963 43.044C231.923 42.1427 230.623 41.692 229.063 41.692C227.572 41.692 226.307 42.1253 225.267 42.992C224.262 43.8587 223.638 45.0893 223.395 46.684H234.523ZM270.038 57.552H256.414L254.23 64H244.922L258.13 27.496H268.426L281.634 64H272.222L270.038 57.552ZM267.75 50.688L263.226 37.324L258.754 50.688H267.75ZM293.546 27.496V64H284.654V27.496H293.546ZM297.482 45.696C297.482 42.0907 298.262 38.884 299.822 36.076C301.382 33.2333 303.548 31.032 306.322 29.472C309.13 27.8773 312.302 27.08 315.838 27.08C320.171 27.08 323.88 28.224 326.966 30.512C330.051 32.8 332.114 35.92 333.154 39.872H323.378C322.65 38.3467 321.61 37.1853 320.258 36.388C318.94 35.5907 317.432 35.192 315.734 35.192C312.995 35.192 310.776 36.1453 309.078 38.052C307.379 39.9587 306.53 42.5067 306.53 45.696C306.53 48.8853 307.379 51.4333 309.078 53.34C310.776 55.2467 312.995 56.2 315.734 56.2C317.432 56.2 318.94 55.8013 320.258 55.004C321.61 54.2067 322.65 53.0453 323.378 51.52H333.154C332.114 55.472 330.051 58.592 326.966 60.88C323.88 63.1333 320.171 64.26 315.838 64.26C312.302 64.26 309.13 63.48 306.322 61.92C303.548 60.3253 301.382 58.124 299.822 55.316C298.262 52.508 297.482 49.3013 297.482 45.696ZM355.435 34.672C358.763 34.672 361.432 35.7813 363.443 38C365.454 40.184 366.459 43.2 366.459 47.048V64H357.619V48.244C357.619 46.3027 357.116 44.7947 356.111 43.72C355.106 42.6453 353.754 42.108 352.055 42.108C350.356 42.108 349.004 42.6453 347.999 43.72C346.994 44.7947 346.491 46.3027 346.491 48.244V64H337.599V25.52H346.491V38.884C347.392 37.6013 348.623 36.5787 350.183 35.816C351.743 35.0533 353.494 34.672 355.435 34.672ZM369.87 49.44C369.87 46.4587 370.425 43.8413 371.534 41.588C372.678 39.3347 374.221 37.6013 376.162 36.388C378.103 35.1747 380.27 34.568 382.662 34.568C384.707 34.568 386.493 34.984 388.018 35.816C389.578 36.648 390.774 37.74 391.606 39.092V34.984H400.498V64H391.606V59.892C390.739 61.244 389.526 62.336 387.966 63.168C386.441 64 384.655 64.416 382.61 64.416C380.253 64.416 378.103 63.8093 376.162 62.596C374.221 61.348 372.678 59.5973 371.534 57.344C370.425 55.056 369.87 52.4213 369.87 49.44ZM391.606 49.492C391.606 47.2733 390.982 45.5227 389.734 44.24C388.521 42.9573 387.03 42.316 385.262 42.316C383.494 42.316 381.986 42.9573 380.738 44.24C379.525 45.488 378.918 47.2213 378.918 49.44C378.918 51.6587 379.525 53.4267 380.738 54.744C381.986 56.0267 383.494 56.668 385.262 56.668C387.03 56.668 388.521 56.0267 389.734 54.744C390.982 53.4613 391.606 51.7107 391.606 49.492ZM422.103 56.46V64H417.579C414.355 64 411.842 63.22 410.039 61.66C408.236 60.0653 407.335 57.4827 407.335 53.912V42.368H403.799V34.984H407.335V27.912H416.227V34.984H422.051V42.368H416.227V54.016C416.227 54.8827 416.435 55.5067 416.851 55.888C417.267 56.2693 417.96 56.46 418.931 56.46H422.103Z" fill="#141414"/>
</g>
<defs>
<clipPath id="clip0_347_22906">
<rect width="424" height="95" fill="white"/>
</clipPath>
</defs>
</svg>
