<svg width="174" height="36" viewBox="0 0 174 36" fill="none" xmlns="http://www.w3.org/2000/svg">
<mask id="mask0_1_30" style="mask-type:luminance" maskUnits="userSpaceOnUse" x="0" y="0" width="31" height="29">
<path d="M0 0H30.6595V28.1926H0V0Z" fill="white"/>
</mask>
<g mask="url(#mask0_1_30)">
<path d="M10.0985 25.5372C6.15118 23.4896 3.48681 19.6009 3.48681 15.1398C3.48681 8.5465 9.30601 3.20223 16.4831 3.20223C20.4518 3.20223 24.0029 4.83482 26.3867 7.40959H30.6595C27.7852 2.9721 22.5122 0 16.4831 0C7.38055 0 0 6.77819 0 15.1398C0 20.6827 3.24479 25.5274 8.08306 28.1651L10.0985 25.5372Z" fill="#5856D6"/>
</g>
<mask id="mask1_1_30" style="mask-type:luminance" maskUnits="userSpaceOnUse" x="11" y="26" width="19" height="10">
<path d="M11.8114 26.0899H29.5003V35.8736H11.8114V26.0899Z" fill="white"/>
</mask>
<g mask="url(#mask1_1_30)">
<path d="M20.3359 26.5423C20.1902 26.5837 20.0467 26.623 19.8989 26.6584L11.8287 29.6659C12.3792 29.8134 12.9425 29.9373 13.5143 30.0337L29.4812 35.9799L21.9165 26.1214C21.4003 26.2925 20.8734 26.4342 20.3359 26.5423Z" fill="#5856D6"/>
</g>
<path d="M17.7104 23.3067C22.4116 23.3067 26.2218 19.8054 26.2218 15.4879C26.2218 11.1704 22.4116 7.66921 17.7104 7.66921C15.1103 7.66921 12.7844 8.73924 11.223 10.4249H8.42371C10.3085 7.51972 13.761 5.57241 17.7104 5.57241C23.6731 5.57241 28.5071 10.0119 28.5071 15.4879C28.5071 20.3542 24.6883 24.4023 19.6552 25.2441L9.19689 29.1387L14.2022 22.6143C15.2731 23.0588 16.4596 23.3067 17.7104 23.3067Z" fill="#5856D6"/>
<path d="M14.4767 15.1398C14.4767 15.8499 13.8491 16.4242 13.0759 16.4242C12.3049 16.4242 11.6774 15.8499 11.6774 15.1398C11.6774 14.4297 12.3049 13.8553 13.0759 13.8553C13.8491 13.8553 14.4767 14.4297 14.4767 15.1398Z" fill="#5856D6"/>
<path d="M18.6892 15.1398C18.6892 15.8499 18.0617 16.4242 17.2906 16.4242C16.5174 16.4242 15.8899 15.8499 15.8899 15.1398C15.8899 14.4297 16.5174 13.8553 17.2906 13.8553C18.0617 13.8553 18.6892 14.4297 18.6892 15.1398Z" fill="#5856D6"/>
<path d="M22.9021 15.1398C22.9021 15.8499 22.2767 16.4242 21.5036 16.4242C20.7304 16.4242 20.105 15.8499 20.105 15.1398C20.105 14.4297 20.7304 13.8553 21.5036 13.8553C22.2767 13.8553 22.9021 14.4297 22.9021 15.1398Z" fill="#5856D6"/>
<path d="M42.6113 25.14C41.5847 25.14 40.6647 24.9733 39.8513 24.64C39.038 24.3067 38.3847 23.8133 37.8913 23.16C37.4113 22.5067 37.158 21.72 37.1313 20.8H40.7713C40.8247 21.32 41.0047 21.72 41.3113 22C41.618 22.2667 42.018 22.4 42.5113 22.4C43.018 22.4 43.418 22.2867 43.7113 22.06C44.0047 21.82 44.1513 21.4933 44.1513 21.08C44.1513 20.7333 44.0313 20.4467 43.7913 20.22C43.5647 19.9933 43.278 19.8067 42.9313 19.66C42.598 19.5133 42.118 19.3467 41.4913 19.16C40.5847 18.88 39.8447 18.6 39.2713 18.32C38.698 18.04 38.2047 17.6267 37.7913 17.08C37.378 16.5333 37.1713 15.82 37.1713 14.94C37.1713 13.6333 37.6447 12.6133 38.5913 11.88C39.538 11.1333 40.7713 10.76 42.2913 10.76C43.838 10.76 45.0847 11.1333 46.0313 11.88C46.978 12.6133 47.4847 13.64 47.5513 14.96H43.8513C43.8247 14.5067 43.658 14.1533 43.3513 13.9C43.0447 13.6333 42.6513 13.5 42.1713 13.5C41.758 13.5 41.4247 13.6133 41.1713 13.84C40.918 14.0533 40.7913 14.3667 40.7913 14.78C40.7913 15.2333 41.0047 15.5867 41.4313 15.84C41.858 16.0933 42.5247 16.3667 43.4313 16.66C44.338 16.9667 45.0713 17.26 45.6313 17.54C46.2047 17.82 46.698 18.2267 47.1113 18.76C47.5247 19.2933 47.7313 19.98 47.7313 20.82C47.7313 21.62 47.5247 22.3467 47.1113 23C46.7113 23.6533 46.1247 24.1733 45.3513 24.56C44.578 24.9467 43.6647 25.14 42.6113 25.14ZM48.7876 19.42C48.7876 18.26 49.0209 17.2467 49.4876 16.38C49.9676 15.5133 50.6276 14.8467 51.4676 14.38C52.3209 13.9133 53.2943 13.68 54.3876 13.68C55.7876 13.68 56.9543 14.0467 57.8876 14.78C58.8343 15.5133 59.4543 16.5467 59.7476 17.88H56.1076C55.8009 17.0267 55.2076 16.6 54.3276 16.6C53.7009 16.6 53.2009 16.8467 52.8276 17.34C52.4543 17.82 52.2676 18.5133 52.2676 19.42C52.2676 20.3267 52.4543 21.0267 52.8276 21.52C53.2009 22 53.7009 22.24 54.3276 22.24C55.2076 22.24 55.8009 21.8133 56.1076 20.96H59.7476C59.4543 22.2667 58.8343 23.2933 57.8876 24.04C56.9409 24.7867 55.7743 25.16 54.3876 25.16C53.2943 25.16 52.3209 24.9267 51.4676 24.46C50.6276 23.9933 49.9676 23.3267 49.4876 22.46C49.0209 21.5933 48.7876 20.58 48.7876 19.42ZM66.2885 25.16C65.1952 25.16 64.2085 24.9267 63.3285 24.46C62.4619 23.9933 61.7752 23.3267 61.2685 22.46C60.7752 21.5933 60.5285 20.58 60.5285 19.42C60.5285 18.2733 60.7819 17.2667 61.2885 16.4C61.7952 15.52 62.4885 14.8467 63.3685 14.38C64.2485 13.9133 65.2352 13.68 66.3285 13.68C67.4219 13.68 68.4085 13.9133 69.2885 14.38C70.1685 14.8467 70.8619 15.52 71.3685 16.4C71.8752 17.2667 72.1285 18.2733 72.1285 19.42C72.1285 20.5667 71.8685 21.58 71.3485 22.46C70.8419 23.3267 70.1419 23.9933 69.2485 24.46C68.3685 24.9267 67.3819 25.16 66.2885 25.16ZM66.2885 22.2C66.9419 22.2 67.4952 21.96 67.9485 21.48C68.4152 21 68.6485 20.3133 68.6485 19.42C68.6485 18.5267 68.4219 17.84 67.9685 17.36C67.5285 16.88 66.9819 16.64 66.3285 16.64C65.6619 16.64 65.1085 16.88 64.6685 17.36C64.2285 17.8267 64.0085 18.5133 64.0085 19.42C64.0085 20.3133 64.2219 21 64.6485 21.48C65.0885 21.96 65.6352 22.2 66.2885 22.2ZM76.9945 15.42C77.3278 14.9 77.7878 14.48 78.3745 14.16C78.9612 13.84 79.6478 13.68 80.4345 13.68C81.3545 13.68 82.1878 13.9133 82.9345 14.38C83.6812 14.8467 84.2678 15.5133 84.6945 16.38C85.1345 17.2467 85.3545 18.2533 85.3545 19.4C85.3545 20.5467 85.1345 21.56 84.6945 22.44C84.2678 23.3067 83.6812 23.98 82.9345 24.46C82.1878 24.9267 81.3545 25.16 80.4345 25.16C79.6612 25.16 78.9745 25 78.3745 24.68C77.7878 24.36 77.3278 23.9467 76.9945 23.44V30.32H73.5745V13.84H76.9945V15.42ZM81.8745 19.4C81.8745 18.5467 81.6345 17.88 81.1545 17.4C80.6878 16.9067 80.1078 16.66 79.4145 16.66C78.7345 16.66 78.1545 16.9067 77.6745 17.4C77.2078 17.8933 76.9745 18.5667 76.9745 19.42C76.9745 20.2733 77.2078 20.9467 77.6745 21.44C78.1545 21.9333 78.7345 22.18 79.4145 22.18C80.0945 22.18 80.6745 21.9333 81.1545 21.44C81.6345 20.9333 81.8745 20.2533 81.8745 19.4ZM97.3003 19.24C97.3003 19.56 97.2803 19.8933 97.2403 20.24H89.5003C89.5536 20.9333 89.7736 21.4667 90.1603 21.84C90.5603 22.2 91.047 22.38 91.6203 22.38C92.4736 22.38 93.067 22.02 93.4003 21.3H97.0403C96.8536 22.0333 96.5136 22.6933 96.0203 23.28C95.5403 23.8667 94.9336 24.3267 94.2003 24.66C93.467 24.9933 92.647 25.16 91.7403 25.16C90.647 25.16 89.6736 24.9267 88.8203 24.46C87.967 23.9933 87.3003 23.3267 86.8203 22.46C86.3403 21.5933 86.1003 20.58 86.1003 19.42C86.1003 18.26 86.3336 17.2467 86.8003 16.38C87.2803 15.5133 87.947 14.8467 88.8003 14.38C89.6536 13.9133 90.6336 13.68 91.7403 13.68C92.8203 13.68 93.7803 13.9067 94.6203 14.36C95.4603 14.8133 96.1136 15.46 96.5803 16.3C97.0603 17.14 97.3003 18.12 97.3003 19.24ZM93.8003 18.34C93.8003 17.7533 93.6003 17.2867 93.2003 16.94C92.8003 16.5933 92.3003 16.42 91.7003 16.42C91.127 16.42 90.6403 16.5867 90.2403 16.92C89.8536 17.2533 89.6136 17.7267 89.5203 18.34H93.8003ZM107.476 22.52H102.236L101.396 25H97.8161L102.896 10.96H106.856L111.936 25H108.316L107.476 22.52ZM106.596 19.88L104.856 14.74L103.136 19.88H106.596ZM116.534 10.96V25H113.114V10.96H116.534ZM118.064 17.96C118.064 16.5733 118.364 15.34 118.964 14.26C119.564 13.1667 120.397 12.32 121.464 11.72C122.544 11.1067 123.764 10.8 125.124 10.8C126.79 10.8 128.217 11.24 129.404 12.12C130.59 13 131.384 14.2 131.784 15.72H128.024C127.744 15.1333 127.344 14.6867 126.824 14.38C126.317 14.0733 125.737 13.92 125.084 13.92C124.03 13.92 123.177 14.2867 122.524 15.02C121.87 15.7533 121.544 16.7333 121.544 17.96C121.544 19.1867 121.87 20.1667 122.524 20.9C123.177 21.6333 124.03 22 125.084 22C125.737 22 126.317 21.8467 126.824 21.54C127.344 21.2333 127.744 20.7867 128.024 20.2H131.784C131.384 21.72 130.59 22.92 129.404 23.8C128.217 24.6667 126.79 25.1 125.124 25.1C123.764 25.1 122.544 24.8 121.464 24.2C120.397 23.5867 119.564 22.74 118.964 21.66C118.364 20.58 118.064 19.3467 118.064 17.96ZM140.37 13.72C141.65 13.72 142.676 14.1467 143.45 15C144.223 15.84 144.61 17 144.61 18.48V25H141.21V18.94C141.21 18.1933 141.016 17.6133 140.63 17.2C140.243 16.7867 139.723 16.58 139.07 16.58C138.416 16.58 137.896 16.7867 137.51 17.2C137.123 17.6133 136.93 18.1933 136.93 18.94V25H133.51V10.2H136.93V15.34C137.276 14.8467 137.75 14.4533 138.35 14.16C138.95 13.8667 139.623 13.72 140.37 13.72ZM145.938 19.4C145.938 18.2533 146.151 17.2467 146.578 16.38C147.018 15.5133 147.611 14.8467 148.358 14.38C149.105 13.9133 149.938 13.68 150.858 13.68C151.645 13.68 152.331 13.84 152.918 14.16C153.518 14.48 153.978 14.9 154.298 15.42V13.84H157.718V25H154.298V23.42C153.965 23.94 153.498 24.36 152.898 24.68C152.311 25 151.625 25.16 150.838 25.16C149.931 25.16 149.105 24.9267 148.358 24.46C147.611 23.98 147.018 23.3067 146.578 22.44C146.151 21.56 145.938 20.5467 145.938 19.4ZM154.298 19.42C154.298 18.5667 154.058 17.8933 153.578 17.4C153.111 16.9067 152.538 16.66 151.858 16.66C151.178 16.66 150.598 16.9067 150.118 17.4C149.651 17.88 149.418 18.5467 149.418 19.4C149.418 20.2533 149.651 20.9333 150.118 21.44C150.598 21.9333 151.178 22.18 151.858 22.18C152.538 22.18 153.111 21.9333 153.578 21.44C154.058 20.9467 154.298 20.2733 154.298 19.42ZM166.044 22.1V25H164.304C163.064 25 162.097 24.7 161.404 24.1C160.71 23.4867 160.364 22.4933 160.364 21.12V16.68H159.004V13.84H160.364V11.12H163.784V13.84H166.024V16.68H163.784V21.16C163.784 21.4933 163.864 21.7333 164.024 21.88C164.184 22.0267 164.45 22.1 164.824 22.1H166.044Z" fill="white"/>
</svg>
