<svg width="119" height="28" viewBox="0 0 119 28" fill="none" xmlns="http://www.w3.org/2000/svg">
<g clip-path="url(#clip0_1_496)">
<g clip-path="url(#clip1_1_496)">
<g clip-path="url(#clip2_1_496)">
<path d="M85.194 15.165C85.763 15.07 86.338 15.018 86.915 15.01C89.432 15.01 91.281 16.242 91.281 18.347C91.281 20.451 89.406 21.606 87.454 21.606C86.742 21.639 86.033 21.498 85.389 21.194C84.744 20.891 84.184 20.434 83.756 19.865L82.445 20.763C83.041 21.588 83.831 22.253 84.745 22.7C85.659 23.148 86.669 23.364 87.686 23.329C90.896 23.329 93.208 21.071 93.208 18.196C93.217 17.233 92.914 16.293 92.345 15.516C91.775 14.739 90.97 14.167 90.049 13.885C90.766 13.562 91.372 13.034 91.788 12.366C92.204 11.699 92.412 10.923 92.386 10.138C92.386 7.288 89.895 5.672 87.404 5.672C86.409 5.627 85.424 5.878 84.573 6.395C83.722 6.911 83.044 7.669 82.626 8.572L84.27 9.291C84.547 8.714 84.986 8.23 85.533 7.897C86.08 7.564 86.712 7.398 87.352 7.417C88.996 7.417 90.486 8.495 90.486 10.108C90.442 10.803 90.165 11.463 89.698 11.98C89.232 12.497 88.605 12.842 87.918 12.958C87.04 13.145 86.143 13.223 85.247 13.189L85.194 15.165Z" fill="#373F4A"/>
<path d="M113.11 5.544C109.308 5.544 107.119 8.954 107.119 14.498C107.119 20.042 109.307 23.452 113.11 23.452C116.914 23.452 119.101 20.042 119.101 14.498C119.101 8.954 116.914 5.544 113.11 5.544ZM113.11 7.314C115.663 7.314 117.15 9.709 117.15 14.498C117.15 19.288 115.666 21.682 113.11 21.682C110.555 21.682 109.07 19.288 109.07 14.498C109.07 9.709 110.557 7.314 113.11 7.314Z" fill="#373F4A"/>
<path d="M103.408 7.19L102.648 5.543C98.212 7.342 94.587 11.546 94.587 16.862C94.587 20.206 96.792 23.448 100.417 23.448C101.119 23.45 101.814 23.313 102.462 23.045C103.111 22.777 103.7 22.383 104.195 21.886C104.69 21.389 105.081 20.799 105.347 20.149C105.612 19.5 105.746 18.805 105.74 18.104C105.74 15.191 103.76 12.658 100.873 12.658C100.057 12.659 99.252 12.85 98.522 13.215C97.792 13.579 97.156 14.108 96.666 14.76C97.377 11.091 99.986 8.786 103.408 7.19ZM96.488 17.119C96.87 16.336 97.454 15.67 98.181 15.189C98.908 14.708 99.75 14.43 100.62 14.383C102.673 14.383 103.839 16.055 103.839 17.904C103.839 20.082 102.546 21.729 100.392 21.729C97.679 21.728 96.615 19.474 96.488 17.119Z" fill="#373F4A"/>
<path d="M79.452 12.968V10.445H76.083L76.335 5.573H73.637L73.063 10.445H71.479V12.968H73.063V18.681C73.036 19.477 73.145 20.272 73.385 21.032C73.634 21.783 74.128 22.429 74.787 22.868C75.446 23.307 76.233 23.514 77.023 23.455C77.988 23.457 78.938 23.228 79.796 22.787L78.905 20.511C78.471 20.744 77.986 20.863 77.494 20.857C76.553 20.857 76.207 20.288 76.108 19.299C76.083 18.903 76.083 18.606 76.083 18.235V12.966L79.452 12.968Z" fill="#373F4A"/>
<path d="M70.101 23.431V15.466C70.101 12.152 68.542 10.124 64.928 10.124C63.091 10.152 61.283 10.583 59.631 11.386L60.447 13.637C61.653 12.962 63.002 12.581 64.383 12.524C66.339 12.524 67.105 13.563 67.105 15.294V15.591C66.317 15.418 65.512 15.326 64.704 15.319C62.006 15.319 59.086 16.308 59.086 19.475C59.086 22.146 61.289 23.457 63.665 23.457C64.341 23.503 65.018 23.393 65.645 23.136C66.272 22.878 66.831 22.48 67.279 21.973L67.428 23.432L70.101 23.431ZM67.106 19.968C66.33 20.731 65.298 21.18 64.21 21.229C63.047 21.229 62.032 20.66 62.032 19.374C62.032 17.717 63.74 17.272 65.15 17.272C65.81 17.28 66.466 17.363 67.106 17.519V19.968Z" fill="#373F4A"/>
<path d="M49.118 5.543H46.123V23.451H49.118V14.694C49.444 14.133 49.904 13.66 50.456 13.319C51.009 12.978 51.638 12.779 52.287 12.74C52.666 12.705 53.048 12.776 53.39 12.947C53.731 13.117 54.018 13.38 54.217 13.705C54.631 14.663 54.801 15.708 54.712 16.747V23.45H57.707V16.524C57.707 14.669 57.509 12.988 56.569 11.751C56.153 11.222 55.618 10.798 55.007 10.515C54.396 10.231 53.727 10.095 53.054 10.119C52.284 10.117 51.524 10.301 50.839 10.654C50.155 11.006 49.565 11.518 49.119 12.146L49.118 5.543Z" fill="#373F4A"/>
<path d="M33.284 14.497C33.246 13.687 33.375 12.877 33.661 12.117C33.947 11.357 34.384 10.664 34.947 10.079C35.51 9.493 36.185 9.028 36.933 8.712C37.682 8.396 38.486 8.235 39.298 8.239C40.592 8.259 41.847 8.683 42.888 9.451L44.348 7.077C42.847 6.093 41.094 5.561 39.298 5.543C38.099 5.511 36.904 5.717 35.786 6.152C34.667 6.587 33.647 7.24 32.784 8.074C31.922 8.908 31.235 9.906 30.764 11.009C30.293 12.112 30.047 13.298 30.04 14.497C30.04 19.865 34.026 23.451 39.224 23.451C41.208 23.444 43.14 22.812 44.744 21.646L43.036 19.42C41.975 20.271 40.659 20.742 39.298 20.755C35.66 20.754 33.284 18.281 33.284 14.497Z" fill="#373F4A"/>
<path d="M26.492 18.657C23.195 20.824 19.465 22.248 15.561 22.828C16.799 22.503 17.942 21.889 18.896 21.036C19.85 20.183 20.587 19.115 21.048 17.922C21.508 16.728 21.678 15.442 21.543 14.17C21.408 12.898 20.973 11.676 20.273 10.605C19.573 9.534 18.628 8.644 17.517 8.01C16.405 7.375 15.159 7.013 13.88 6.954C12.601 6.895 11.327 7.141 10.162 7.671C8.996 8.2 7.974 8.999 7.178 10.001C4.289 13.151 2.183 16.935 1.028 21.049C1.007 21.119 0.986999 21.195 0.966999 21.269C0.861999 21.668 0.767999 22.071 0.685999 22.478L0.184999 27.003C0.167999 27.46 0.158999 27.92 0.158999 28.382L0.147999 27.334L0.0209995 28.488V28.322L0.000999451 19.86L0.0209995 15.02C0.0199995 11.574 1.339 8.258 3.709 5.755C6.078 3.251 9.318 1.749 12.761 1.558C16.204 1.367 19.59 2.501 22.223 4.727C24.855 6.954 26.534 10.103 26.915 13.528C26.923 13.607 26.93 13.68 26.937 13.755C26.937 13.76 26.937 13.765 26.937 13.771C26.942 13.83 26.947 13.888 26.952 13.947C26.952 13.975 26.957 14.004 26.959 14.033C26.97 14.184 26.978 14.335 26.984 14.488C26.984 14.494 26.984 14.499 26.984 14.505C27.022 15.906 26.857 17.304 26.492 18.657Z" fill="url(#paint0_linear_1_496)"/>
<path d="M26.492 18.657C23.195 20.824 19.465 22.248 15.561 22.828C17.458 22.328 19.109 21.155 20.205 19.528C21.3 17.901 21.766 15.931 21.514 13.986C21.262 12.041 20.311 10.254 18.837 8.959C17.364 7.664 15.468 6.949 13.506 6.948V1.543C16.825 1.543 20.027 2.766 22.501 4.977C24.974 7.188 26.545 10.232 26.914 13.528C26.922 13.608 26.93 13.68 26.936 13.756C26.937 13.761 26.937 13.766 26.936 13.771C26.942 13.831 26.946 13.889 26.951 13.948C26.951 13.976 26.956 14.005 26.958 14.033C26.969 14.184 26.977 14.336 26.983 14.489C26.983 14.494 26.983 14.5 26.983 14.506C27.021 15.906 26.856 17.304 26.492 18.657Z" fill="url(#paint1_linear_1_496)"/>
<path d="M13.435 16.215C14.095 16.215 14.63 15.68 14.63 15.021C14.63 14.362 14.095 13.828 13.435 13.828C12.775 13.828 12.241 14.362 12.241 15.021C12.241 15.68 12.775 16.215 13.435 16.215Z" fill="#1677FF"/>
<path d="M9.501 16.215C10.161 16.215 10.696 15.68 10.696 15.021C10.696 14.362 10.161 13.828 9.501 13.828C8.842 13.828 8.307 14.362 8.307 15.021C8.307 15.68 8.842 16.215 9.501 16.215Z" fill="#1677FF"/>
<path d="M17.37 16.215C18.03 16.215 18.564 15.68 18.564 15.021C18.564 14.362 18.03 13.828 17.37 13.828C16.71 13.828 16.175 14.362 16.175 15.021C16.175 15.68 16.71 16.215 17.37 16.215Z" fill="#1677FF"/>
<path d="M13.459 23.093H13.251L13.093 23.086C11.61 23.01 10.177 22.527 8.951 21.691C7.725 20.855 6.753 19.698 6.142 18.346C5.531 16.994 5.304 15.5 5.487 14.028C5.67 12.556 6.255 11.163 7.178 10.001C2.564 15.029 0.00799909 21.606 0.0169991 28.428V28.488C3.611 25.751 12.286 23.383 13.252 23.116L13.459 23.093Z" fill="url(#paint2_linear_1_496)"/>
<path d="M26.491 18.657C26.464 18.755 26.437 18.852 26.412 18.946C26.403 18.978 26.393 19.009 26.384 19.04C26.368 19.093 26.351 19.145 26.335 19.198C25.823 20.798 25.006 22.285 23.931 23.575L23.923 23.585L23.812 23.717L23.692 23.857C22.427 25.316 20.863 26.486 19.105 27.287C17.347 28.088 15.438 28.502 13.506 28.5H0.0170002C0.0170002 28.498 0.0170002 28.496 0.0170002 28.496C0.0160002 28.494 0.0170002 28.491 0.0170002 28.491L0.102 28.427L0.155 28.386C3.98 25.508 8.498 23.692 13.251 23.121L13.453 23.096H13.503C13.985 23.097 14.466 23.054 14.94 22.969C15.152 22.932 15.358 22.886 15.56 22.832C19.494 22.248 26.333 18.41 26.899 13.636V13.63L26.908 13.537L26.918 13.635C26.922 13.678 26.927 13.721 26.93 13.764C26.931 13.769 26.931 13.775 26.93 13.78C26.936 13.839 26.941 13.897 26.945 13.957C26.945 13.984 26.95 14.014 26.952 14.042C26.963 14.193 26.971 14.345 26.977 14.497C26.977 14.503 26.977 14.509 26.977 14.515C27.017 15.912 26.853 17.307 26.491 18.657Z" fill="#1677FF"/>
<path d="M27.094 0.519999C27.204 0.490999 27.32 0.491999 27.431 0.521999C27.541 0.551999 27.641 0.609999 27.722 0.690999C27.803 0.770999 27.861 0.871999 27.891 0.981999C27.921 1.092 27.922 1.208 27.893 1.319L26.744 5.729C26.715 5.84 26.657 5.942 26.576 6.024C26.495 6.106 26.393 6.165 26.282 6.195C26.171 6.225 26.053 6.226 25.942 6.196C25.83 6.166 25.729 6.108 25.647 6.026L22.383 2.764C22.301 2.683 22.242 2.581 22.213 2.47C22.183 2.358 22.183 2.241 22.214 2.13C22.244 2.019 22.303 1.917 22.385 1.836C22.467 1.755 22.569 1.697 22.68 1.668L27.094 0.519999Z" fill="#1677FF"/>
</g>
</g>
</g>
<defs>
<linearGradient id="paint0_linear_1_496" x1="0.994554" y1="28.488" x2="25.9583" y2="1.50256" gradientUnits="userSpaceOnUse">
<stop stop-color="#0F4ABE"/>
<stop offset="1" stop-color="#1677FF"/>
</linearGradient>
<linearGradient id="paint1_linear_1_496" x1="26.9883" y1="19.1538" x2="10.5529" y2="12.3374" gradientUnits="userSpaceOnUse">
<stop stop-color="#0F4ABE"/>
<stop offset="1" stop-color="#1677FF"/>
</linearGradient>
<linearGradient id="paint2_linear_1_496" x1="13.459" y1="25.048" x2="-2.0497" y2="17.9681" gradientUnits="userSpaceOnUse">
<stop stop-color="#0F4ABE"/>
<stop offset="1" stop-color="#1677FF"/>
</linearGradient>
<clipPath id="clip0_1_496">
<rect width="119" height="28" fill="white"/>
</clipPath>
<clipPath id="clip1_1_496">
<rect width="120" height="29" fill="white"/>
</clipPath>
<clipPath id="clip2_1_496">
<rect width="120" height="29" fill="white"/>
</clipPath>
</defs>
</svg>
