<svg width="42" height="42" viewBox="0 0 42 42" fill="none" xmlns="http://www.w3.org/2000/svg">
<g clip-path="url(#clip0_1_95)">
<g clip-path="url(#clip1_1_95)">
<path d="M16.5928 3.53171C16.9205 2.64361 17.3711 1.82598 18.0402 1.16343C20.7165 -1.52908 25.1406 -0.852425 26.9566 2.53083C28.3221 5.09647 29.7695 7.60572 31.1759 10.1432C33.5245 14.3581 35.9004 18.5731 38.2217 22.8022C40.1743 26.3405 38.0578 30.8092 34.1799 31.4154C31.804 31.7819 29.5783 30.6542 28.3494 28.4551C26.2875 24.7476 24.212 21.0401 22.1502 17.3467C22.1092 17.2621 22.0546 17.1916 22 17.1211C21.7815 16.9379 21.6859 16.67 21.5494 16.4304C20.6345 14.767 19.6924 13.1176 18.7775 11.4683C18.1904 10.3969 17.5759 9.33964 16.9888 8.26828C16.4562 7.30968 16.2105 6.26651 16.2378 5.16695C16.2787 4.60308 16.347 4.0392 16.5928 3.53171Z" fill="#3C8BD9"/>
<path d="M16.5929 3.53174C16.47 4.03923 16.3607 4.54672 16.3334 5.0824C16.2925 6.26654 16.5792 7.3661 17.1527 8.39517C18.6546 11.0595 20.1567 13.7379 21.645 16.4163C21.7816 16.656 21.8908 16.8956 22.0273 17.1212C21.2081 18.5872 20.3888 20.0392 19.5559 21.5053C18.4089 23.5493 17.2619 25.6075 16.1013 27.6515C16.0467 27.6515 16.033 27.6234 16.0194 27.5811C16.0057 27.4683 16.0467 27.3696 16.074 27.2568C16.6338 25.1423 16.1696 23.2674 14.7631 21.6604C13.9029 20.6877 12.8105 20.1379 11.5543 19.9546C9.91575 19.715 8.46836 20.152 7.17117 21.2093C6.93904 21.3925 6.78884 21.6604 6.51575 21.8013C6.46113 21.8013 6.43382 21.7731 6.42017 21.7308C7.07559 20.5608 7.71735 19.3908 8.37278 18.2207C11.0764 13.3714 13.78 8.52205 16.4973 3.6868C16.5246 3.63042 16.5655 3.58813 16.5929 3.53174Z" fill="#FABC04"/>
<path d="M6.47471 21.7731C6.73414 21.5335 6.97993 21.2797 7.25302 21.0542C10.5711 18.3476 15.555 20.307 16.2787 24.5925C16.4562 25.6216 16.3606 26.6084 16.0602 27.5952C16.0466 27.6797 16.0329 27.7502 16.0056 27.8348C15.8827 28.0603 15.7735 28.3 15.637 28.5255C14.4217 30.5978 12.6329 31.6269 10.2843 31.4718C7.59438 31.2744 5.47792 29.1881 5.10925 26.4251C4.93174 25.0859 5.19118 23.8313 5.86025 22.6753C5.9968 22.4216 6.16065 22.196 6.31085 21.9423C6.37912 21.8859 6.35182 21.7731 6.47471 21.7731Z" fill="#34A852"/>
<path d="M6.47471 21.7731C6.42009 21.8295 6.42009 21.9282 6.32451 21.9423C6.31086 21.8436 6.36547 21.7872 6.42009 21.7167L6.47471 21.7731Z" fill="#FABC04"/>
<path d="M16.0057 27.8348C15.951 27.7361 16.0057 27.6656 16.0603 27.5952C16.0739 27.6093 16.1012 27.6374 16.1149 27.6515L16.0057 27.8348Z" fill="#E1C025"/>
</g>
</g>
<defs>
<clipPath id="clip0_1_95">
<rect width="42" height="42" fill="white"/>
</clipPath>
<clipPath id="clip1_1_95">
<rect width="34" height="32" fill="white" transform="translate(5 -0.5)"/>
</clipPath>
</defs>
</svg>
