<svg width="42" height="42" viewBox="0 0 42 42" fill="none" xmlns="http://www.w3.org/2000/svg">
<g clip-path="url(#clip0_1_76)">
<mask id="mask0_1_76" style="mask-type:luminance" maskUnits="userSpaceOnUse" x="0" y="0" width="42" height="42">
<path d="M42 0.888916H0V41.1111H42V0.888916Z" fill="white"/>
</mask>
<g mask="url(#mask0_1_76)">
<path fill-rule="evenodd" clip-rule="evenodd" d="M35.8804 6.72953C31.9327 2.96503 26.6824 0.890826 21.0882 0.888916C9.56095 0.888916 0.179487 9.82269 0.175476 20.8039C0.17347 24.3144 1.13709 27.7408 2.96706 30.7605L0 41.0818L11.0861 38.3124C14.1403 39.8996 17.5797 40.7351 21.0792 40.7361H21.0882C32.6134 40.7361 41.996 31.8014 42 20.8201C42.002 15.4981 39.829 10.494 35.8804 6.72953ZM21.0882 37.3727H21.0812C17.9627 37.3718 14.9035 36.5734 12.2343 35.0655L11.5995 34.7065L5.02064 36.3499L6.7764 30.2409L6.36327 29.6145C4.62355 26.9788 3.70405 23.9324 3.70606 20.8049C3.71007 11.6782 11.5073 4.25233 21.0953 4.25233C25.7378 4.25424 30.1017 5.97797 33.3836 9.10742C36.6656 12.2359 38.4714 16.3958 38.4695 20.8182C38.4654 29.9459 30.6683 37.3727 21.0882 37.3727ZM30.6221 24.9752C30.0996 24.726 27.5308 23.5227 27.0514 23.3566C26.5721 23.1904 26.2242 23.1074 25.8762 23.6058C25.5283 24.1044 24.5266 25.2255 24.2217 25.5568C23.9169 25.8891 23.6121 25.9302 23.0896 25.6809C22.5673 25.4317 20.8837 24.9065 18.8873 23.2114C17.3341 21.8916 16.2852 20.2625 15.9804 19.7639C15.6756 19.2655 15.9483 18.9961 16.209 18.7488C16.4436 18.5254 16.7314 18.1672 16.9931 17.8769C17.2549 17.5866 17.3411 17.3785 17.5155 17.047C17.6901 16.7147 17.6028 16.4245 17.4724 16.1751C17.342 15.9259 16.2973 13.4764 15.8611 12.4804C15.4369 11.5101 15.0058 11.6419 14.6859 11.6257C14.381 11.6113 14.0331 11.6085 13.6842 11.6085C13.3352 11.6085 12.7697 11.7326 12.2904 12.2311C11.8111 12.7296 10.4614 13.9338 10.4614 16.3824C10.4614 18.8309 12.3335 21.1984 12.5952 21.5307C12.8569 21.863 16.2801 26.889 21.5214 29.0454C22.7679 29.5581 23.7414 29.8647 24.5005 30.0939C25.752 30.473 26.8909 30.4196 27.7914 30.2916C28.7952 30.1484 30.8828 29.0874 31.318 27.9251C31.7532 26.7629 31.7532 25.7659 31.6228 25.5587C31.4925 25.3515 31.1436 25.2264 30.6211 24.9771L30.6221 24.9752Z" fill="#25D366"/>
</g>
</g>
<defs>
<clipPath id="clip0_1_76">
<rect width="42" height="42" fill="white"/>
</clipPath>
</defs>
</svg>
