<svg width="42" height="42" viewBox="0 0 42 42" fill="none" xmlns="http://www.w3.org/2000/svg">
<g clip-path="url(#clip0_1_146)">
<path d="M34.1057 2.60999H8.18428C5.32108 2.60999 3 4.93106 3 7.79426V33.7156C3 36.5788 5.32108 38.8999 8.18428 38.8999H34.1057C36.9688 38.8999 39.2899 36.5788 39.2899 33.7156V7.79426C39.2899 4.93106 36.9688 2.60999 34.1057 2.60999Z" fill="#3A48FF"/>
<path d="M26.394 17.6185C26.394 17.6185 24.6443 23.1138 24.5018 23.5674C24.4499 23.1008 23.1668 13.2378 23.1668 13.2378C20.1859 13.2378 18.5917 15.3633 17.7492 17.6055C17.7492 17.6055 15.6237 23.1138 15.4422 23.5804C15.4293 23.1527 15.1182 17.6703 15.1182 17.6703C14.9368 14.9227 12.4224 13.2507 10.3876 13.2507L12.8501 28.1944C15.9736 28.1814 17.6585 26.0688 18.5398 23.8266C18.5398 23.8266 20.4191 18.9664 20.4969 18.7461C20.5099 18.9534 21.8448 28.1944 21.8448 28.1944C24.9813 28.1944 26.6662 26.2114 27.5734 24.047L31.9671 13.2507C28.8695 13.2507 27.2365 15.3633 26.394 17.6185Z" fill="white"/>
</g>
<defs>
<clipPath id="clip0_1_146">
<rect width="36.2899" height="36.2899" fill="white" transform="translate(3 2.60999)"/>
</clipPath>
</defs>
</svg>
