<svg xmlns="http://www.w3.org/2000/svg" xmlns:xlink="http://www.w3.org/1999/xlink" width="500" zoomAndPan="magnify" viewBox="0 0 375 374.999991" height="500" preserveAspectRatio="xMidYMid meet" version="1.0"><defs><clipPath id="1c0775d289"><path d="M 122.074219 103.902344 L 252.574219 103.902344 L 252.574219 234.898438 L 122.074219 234.898438 Z M 122.074219 103.902344 " clip-rule="nonzero"/></clipPath><clipPath id="db3d791a21"><path d="M 172.472656 225.128906 L 247.964844 225.128906 L 247.964844 271.082031 L 172.472656 271.082031 Z M 172.472656 225.128906 " clip-rule="nonzero"/></clipPath></defs><rect x="-37.5" width="450" fill="#ffffff" y="-37.499999" height="449.999989" fill-opacity="1"/><rect x="-37.5" width="450" fill="#ffffff" y="-37.499999" height="449.999989" fill-opacity="1"/><g clip-path="url(#1c0775d289)"><path fill="#1677ff" d="M 165.171875 222.5625 C 148.324219 213.042969 136.953125 194.972656 136.953125 174.246094 C 136.953125 143.613281 161.785156 118.78125 192.414062 118.78125 C 209.34375 118.78125 224.5 126.371094 234.671875 138.328125 L 252.90625 138.328125 C 240.640625 117.714844 218.140625 103.902344 192.414062 103.902344 C 153.566406 103.902344 122.074219 135.398438 122.074219 174.246094 C 122.074219 200 135.917969 222.515625 156.566406 234.773438 L 165.171875 222.5625 " fill-opacity="1" fill-rule="nonzero"/></g><g clip-path="url(#db3d791a21)"><path fill="#1677ff" d="M 208.851562 227.226562 C 208.234375 227.417969 207.617188 227.601562 206.992188 227.769531 L 172.554688 241.738281 C 174.902344 242.429688 177.300781 243.003906 179.742188 243.445312 L 247.878906 271.082031 L 215.597656 225.273438 C 213.398438 226.070312 211.148438 226.726562 208.851562 227.226562 " fill-opacity="1" fill-rule="nonzero"/></g><path fill="#1677ff" d="M 197.644531 212.191406 C 217.707031 212.191406 233.972656 195.929688 233.972656 175.867188 C 233.972656 155.804688 217.707031 139.539062 197.644531 139.539062 C 186.554688 139.539062 176.628906 144.507812 169.96875 152.339844 L 158.023438 152.339844 C 166.058594 138.839844 180.796875 129.792969 197.644531 129.792969 C 223.089844 129.792969 243.71875 150.421875 243.71875 175.867188 C 243.71875 198.476562 227.429688 217.28125 205.945312 221.191406 L 161.320312 239.292969 L 182.679688 208.976562 C 187.246094 211.042969 192.308594 212.191406 197.644531 212.191406 " fill-opacity="1" fill-rule="nonzero"/><path fill="#1677ff" d="M 183.84375 174.246094 C 183.84375 177.542969 181.171875 180.214844 177.875 180.214844 C 174.578125 180.214844 171.902344 177.542969 171.902344 174.246094 C 171.902344 170.949219 174.578125 168.273438 177.875 168.273438 C 181.171875 168.273438 183.84375 170.949219 183.84375 174.246094 " fill-opacity="1" fill-rule="nonzero"/><path fill="#1677ff" d="M 201.824219 174.246094 C 201.824219 177.542969 199.152344 180.214844 195.855469 180.214844 C 192.554688 180.214844 189.882812 177.542969 189.882812 174.246094 C 189.882812 170.949219 192.554688 168.273438 195.855469 168.273438 C 199.152344 168.273438 201.824219 170.949219 201.824219 174.246094 " fill-opacity="1" fill-rule="nonzero"/><path fill="#1677ff" d="M 219.804688 174.246094 C 219.804688 177.542969 217.132812 180.214844 213.832031 180.214844 C 210.535156 180.214844 207.863281 177.542969 207.863281 174.246094 C 207.863281 170.949219 210.535156 168.273438 213.832031 168.273438 C 217.132812 168.273438 219.804688 170.949219 219.804688 174.246094 " fill-opacity="1" fill-rule="nonzero"/></svg>