<svg width="75" height="95" viewBox="0 0 75 95" fill="none" xmlns="http://www.w3.org/2000/svg">
<mask id="mask0_1_65" style="mask-type:luminance" maskUnits="userSpaceOnUse" x="0" y="0" width="75" height="75">
<path d="M0 0H74.5573V74.651H0V0Z" fill="white"/>
</mask>
<g mask="url(#mask0_1_65)">
<path d="M24.5573 67.6198C14.9583 62.1979 8.47917 51.901 8.47917 40.0885C8.47917 22.6302 22.6302 8.47917 40.0833 8.47917C49.7344 8.47917 58.3698 12.8021 64.1667 19.6198H74.5573C67.5677 7.86979 54.7448 0 40.0833 0C17.9479 0 0 17.9479 0 40.0885C0 54.7656 7.89063 67.5938 19.6563 74.5781L24.5573 67.6198Z" fill="#5856D6"/>
</g>
<mask id="mask1_1_65" style="mask-type:luminance" maskUnits="userSpaceOnUse" x="28" y="69" width="44" height="26">
<path d="M28.7227 69.084H71.7383V94.9902H28.7227V69.084Z" fill="white"/>
</mask>
<g mask="url(#mask1_1_65)">
<path d="M49.4512 70.2826C49.097 70.3919 48.748 70.4961 48.3887 70.5898L28.7637 78.5534C30.1022 78.944 31.472 79.2721 32.8626 79.5273L71.6908 95.2721L53.2949 69.168C52.0397 69.6211 50.7585 69.9961 49.4512 70.2826Z" fill="#5856D6"/>
</g>
<path d="M43.0677 61.7142C54.5 61.7142 63.7656 52.4434 63.7656 41.0111C63.7656 29.5788 54.5 20.3079 43.0677 20.3079C36.7448 20.3079 31.0885 23.1413 27.2917 27.6048H20.4844C25.0677 19.9121 33.4635 14.7559 43.0677 14.7559C57.5677 14.7559 69.3229 26.5111 69.3229 41.0111C69.3229 53.8965 60.0365 64.6152 47.7969 66.8444L22.3646 77.1569L34.5365 59.8809C37.1406 61.0579 40.026 61.7142 43.0677 61.7142Z" fill="#5856D6"/>
<path d="M35.2018 40.0885C35.2018 41.9687 33.6758 43.4896 31.7956 43.4896C29.9206 43.4896 28.3945 41.9687 28.3945 40.0885C28.3945 38.2083 29.9206 36.6875 31.7956 36.6875C33.6758 36.6875 35.2018 38.2083 35.2018 40.0885Z" fill="#5856D6"/>
<path d="M45.4479 40.0885C45.4479 41.9687 43.9219 43.4896 42.0469 43.4896C40.1667 43.4896 38.6406 41.9687 38.6406 40.0885C38.6406 38.2083 40.1667 36.6875 42.0469 36.6875C43.9219 36.6875 45.4479 38.2083 45.4479 40.0885Z" fill="#5856D6"/>
<path d="M55.6927 40.0885C55.6927 41.9687 54.1719 43.4896 52.2917 43.4896C50.4115 43.4896 48.8906 41.9687 48.8906 40.0885C48.8906 38.2083 50.4115 36.6875 52.2917 36.6875C54.1719 36.6875 55.6927 38.2083 55.6927 40.0885Z" fill="#5856D6"/>
</svg>
