<svg width="70" height="83" viewBox="0 0 70 83" fill="none" xmlns="http://www.w3.org/2000/svg">
<g clip-path="url(#clip0_34_602)">
<g clip-path="url(#clip1_34_602)">
<path d="M62.1567 2.36377H7.56957C3.38855 2.36377 0 5.75231 0 9.93336V72.5669C0 76.7479 3.38855 80.1364 7.56957 80.1364H62.1597C66.3377 80.1364 69.7295 76.7449 69.7295 72.5669V9.93031C69.7265 5.74928 66.3377 2.36377 62.1567 2.36377Z" fill="#1677FF"/>
<path opacity="0.28" d="M69.726 56.3052L28.4955 80.1344L11.3281 47.0142H21.9705L11.3281 23.9531H43.5073L48.833 35.5792L58.3975 35.4822L69.726 56.3052Z" fill="url(#paint0_linear_34_602)"/>
<path d="M14.5133 27.3052H40.322C42.0802 27.3052 43.5073 25.8782 43.5073 24.1202V23.7862C43.5073 22.0281 42.0802 20.6011 40.322 20.6011H14.5133C12.7552 20.6011 11.3281 22.0281 11.3281 23.7862V24.1202C11.3281 25.8782 12.7552 27.3052 14.5133 27.3052Z" fill="white"/>
<path d="M55.2147 32.1343H29.4057C27.6477 32.1343 26.2207 33.5615 26.2207 35.3195V35.6535C26.2207 37.4115 27.6477 38.8385 29.4057 38.8385H55.2147C56.9727 38.8385 58.3997 37.4115 58.3997 35.6535V35.3195C58.3997 33.5615 56.9727 32.1343 55.2147 32.1343Z" fill="#8BF76D"/>
<path d="M43.5073 47.1814V46.8474C43.5073 45.0894 42.0802 43.6621 40.322 43.6621H14.5133C12.7552 43.6621 11.3281 45.0894 11.3281 46.8474V47.1814C11.3281 48.9394 12.7552 50.3664 14.5133 50.3664H40.322C42.0802 50.3664 43.5073 48.9394 43.5073 47.1814Z" fill="white"/>
<path d="M55.2097 55.1934H36.1049C34.3469 55.1934 32.9199 56.6204 32.9199 58.3784V58.7124C32.9199 60.4704 34.3469 61.8976 36.1049 61.8976H55.2097C56.9677 61.8976 58.3947 60.4704 58.3947 58.7124V58.3784C58.3947 56.6204 56.9677 55.1934 55.2097 55.1934Z" fill="#8BF76D"/>
</g>
</g>
<defs>
<linearGradient id="paint0_linear_34_602" x1="49.3772" y1="68.0797" x2="20.7575" y2="18.5089" gradientUnits="userSpaceOnUse">
<stop offset="0.1966" stop-color="#6D33AA"/>
<stop offset="1"/>
</linearGradient>
<clipPath id="clip0_34_602">
<rect width="70" height="82.5" fill="white"/>
</clipPath>
<clipPath id="clip1_34_602">
<rect width="70" height="82.5" fill="white"/>
</clipPath>
</defs>
</svg>
