<svg width="424" height="95" viewBox="0 0 424 95" fill="none" xmlns="http://www.w3.org/2000/svg">
<mask id="mask0_16_3415" style="mask-type:luminance" maskUnits="userSpaceOnUse" x="0" y="0" width="75" height="75">
<path d="M0 0H74.5573V74.651H0V0Z" fill="white"/>
</mask>
<g mask="url(#mask0_16_3415)">
<path d="M24.5573 67.6198C14.9583 62.1979 8.47917 51.901 8.47917 40.0885C8.47917 22.6302 22.6302 8.47917 40.0833 8.47917C49.7344 8.47917 58.3698 12.8021 64.1667 19.6198H74.5573C67.5677 7.86979 54.7448 0 40.0833 0C17.9479 0 0 17.9479 0 40.0885C0 54.7656 7.89063 67.5938 19.6563 74.5781L24.5573 67.6198Z" fill="#1677FF"/>
</g>
<mask id="mask1_16_3415" style="mask-type:luminance" maskUnits="userSpaceOnUse" x="28" y="69" width="44" height="26">
<path d="M28.7227 69.084H71.7383V94.9902H28.7227V69.084Z" fill="white"/>
</mask>
<g mask="url(#mask1_16_3415)">
<path d="M49.4512 70.2826C49.097 70.3919 48.748 70.4961 48.3887 70.5898L28.7637 78.5534C30.1022 78.944 31.472 79.2721 32.8626 79.5273L71.6908 95.2721L53.2949 69.168C52.0397 69.6211 50.7585 69.9961 49.4512 70.2826Z" fill="#1677FF"/>
</g>
<path d="M43.0677 61.7142C54.5 61.7142 63.7656 52.4434 63.7656 41.0111C63.7656 29.5788 54.5 20.3079 43.0677 20.3079C36.7448 20.3079 31.0885 23.1413 27.2917 27.6048H20.4844C25.0677 19.9121 33.4635 14.7559 43.0677 14.7559C57.5677 14.7559 69.3229 26.5111 69.3229 41.0111C69.3229 53.8965 60.0365 64.6152 47.7969 66.8444L22.3646 77.1569L34.5365 59.8809C37.1406 61.0579 40.026 61.7142 43.0677 61.7142Z" fill="#1677FF"/>
<path d="M35.2018 40.0885C35.2018 41.9687 33.6758 43.4896 31.7956 43.4896C29.9206 43.4896 28.3945 41.9687 28.3945 40.0885C28.3945 38.2083 29.9206 36.6875 31.7956 36.6875C33.6758 36.6875 35.2018 38.2083 35.2018 40.0885Z" fill="#1677FF"/>
<path d="M45.4479 40.0885C45.4479 41.9687 43.9219 43.4896 42.0469 43.4896C40.1667 43.4896 38.6406 41.9687 38.6406 40.0885C38.6406 38.2083 40.1667 36.6875 42.0469 36.6875C43.9219 36.6875 45.4479 38.2083 45.4479 40.0885Z" fill="#1677FF"/>
<path d="M55.6927 40.0885C55.6927 41.9687 54.1719 43.4896 52.2917 43.4896C50.4115 43.4896 48.8906 41.9687 48.8906 40.0885C48.8906 38.2083 50.4115 36.6875 52.2917 36.6875C54.1719 36.6875 55.6927 38.2083 55.6927 40.0885Z" fill="#1677FF"/>
<mask id="mask2_16_3415" style="mask-type:luminance" maskUnits="userSpaceOnUse" x="88" y="5" width="336" height="84">
<path d="M423.13 5.64062H88.4629V88.3073H423.13V5.64062Z" fill="white"/>
</mask>
<g mask="url(#mask2_16_3415)">
<path d="M91.1641 46.7057C91.1641 42.7474 92.0182 39.2214 93.7266 36.1224C95.4453 33.0286 97.8359 30.6172 100.893 28.8932C103.945 27.1589 107.414 26.2891 111.289 26.2891C116.039 26.2891 120.102 27.5495 123.477 30.0599C126.862 32.5755 129.128 35.9922 130.268 40.3099H119.56C118.753 38.6432 117.622 37.3724 116.164 36.4974C114.706 35.6224 113.044 35.1849 111.185 35.1849C108.169 35.1849 105.732 36.237 103.872 38.3307C102.008 40.4141 101.081 43.2057 101.081 46.7057C101.081 50.2057 102.008 53.0078 103.872 55.1016C105.732 57.1849 108.169 58.2266 111.185 58.2266C113.044 58.2266 114.706 57.7891 116.164 56.9141C117.622 56.0391 118.753 54.763 119.56 53.0807H130.268C129.128 57.4141 126.862 60.8307 123.477 63.3307C120.102 65.8203 116.039 67.0599 111.289 67.0599C107.414 67.0599 103.945 66.2005 100.893 64.4766C97.8359 62.7422 95.4453 60.3307 93.7266 57.2474C92.0182 54.1641 91.1641 50.6536 91.1641 46.7057Z" fill="#141414"/>
<path d="M157.743 34.6217C161.394 34.6217 164.316 35.8301 166.514 38.2467C168.722 40.653 169.826 43.9655 169.826 48.1842V66.7676H160.139V49.4967C160.139 47.3717 159.581 45.7207 158.472 44.5384C157.373 43.3613 155.894 42.7676 154.035 42.7676C152.17 42.7676 150.686 43.3613 149.576 44.5384C148.477 45.7207 147.93 47.3717 147.93 49.4967V66.7676H138.201V24.5801H147.93V39.2467C148.93 37.8301 150.285 36.7051 151.993 35.8717C153.701 35.0384 155.618 34.6217 157.743 34.6217Z" fill="#141414"/>
<path d="M176.617 50.8086C176.617 47.5482 177.227 44.6784 178.451 42.2044C179.685 39.7357 181.367 37.8294 183.492 36.4961C185.628 35.1628 188.013 34.4961 190.638 34.4961C192.872 34.4961 194.836 34.9544 196.534 35.8711C198.227 36.7878 199.523 37.9857 200.43 39.4544V34.9544H210.18V66.7669H200.43V62.2669C199.482 63.7565 198.164 64.9544 196.471 65.8711C194.773 66.7721 192.81 67.2253 190.576 67.2253C187.992 67.2253 185.628 66.5534 183.492 65.2044C181.367 63.8607 179.685 61.944 178.451 59.4544C177.227 56.9544 176.617 54.0742 176.617 50.8086ZM200.43 50.8711C200.43 48.444 199.753 46.5273 198.409 45.1211C197.06 43.7044 195.414 42.9961 193.471 42.9961C191.539 42.9961 189.898 43.694 188.555 45.0794C187.206 46.4701 186.534 48.3815 186.534 50.8086C186.534 53.2409 187.206 55.1732 188.555 56.6003C189.898 58.0169 191.539 58.7253 193.471 58.7253C195.414 58.7253 197.06 58.0273 198.409 56.6211C199.753 55.2201 200.43 53.3034 200.43 50.8711Z" fill="#141414"/>
<path d="M236.923 58.4967V66.7676H231.944C228.413 66.7676 225.663 65.9082 223.694 64.1842C221.72 62.4499 220.736 59.6217 220.736 55.7051V43.0592H216.84V34.9551H220.736V27.2051H230.465V34.9551H236.861V43.0592H230.465V55.8301C230.465 56.778 230.694 57.4551 231.152 57.8717C231.611 58.2884 232.371 58.4967 233.444 58.4967H236.923Z" fill="#141414"/>
<path d="M254.003 39.4551C254.919 37.9863 256.232 36.7884 257.94 35.8717C259.648 34.9551 261.607 34.4967 263.815 34.4967C266.44 34.4967 268.815 35.1634 270.94 36.4967C273.065 37.8301 274.742 39.7363 275.982 42.2051C277.216 44.679 277.836 47.5488 277.836 50.8092C277.836 54.0749 277.216 56.9551 275.982 59.4551C274.742 61.9447 273.065 63.8613 270.94 65.2051C268.815 66.554 266.44 67.2259 263.815 67.2259C261.576 67.2259 259.617 66.778 257.94 65.8926C256.273 64.9915 254.961 63.804 254.003 62.3301V66.7676H244.273V24.5801H254.003V39.4551ZM267.919 50.8092C267.919 48.3822 267.242 46.4707 265.898 45.0801C264.549 43.6947 262.888 42.9967 260.919 42.9967C258.971 42.9967 257.326 43.7051 255.982 45.1217C254.633 46.528 253.961 48.4447 253.961 50.8717C253.961 53.304 254.633 55.2207 255.982 56.6217C257.326 58.028 258.971 58.7259 260.919 58.7259C262.846 58.7259 264.492 58.0176 265.857 56.6009C267.232 55.1738 267.919 53.2415 267.919 50.8092Z" fill="#141414"/>
<path d="M299.391 67.2253C296.266 67.2253 293.459 66.5586 290.975 65.2253C288.485 63.8919 286.527 61.9961 285.1 59.5378C283.683 57.069 282.975 54.1784 282.975 50.8711C282.975 47.5951 283.693 44.7148 285.141 42.2253C286.584 39.7409 288.558 37.8294 291.058 36.4961C293.568 35.1628 296.381 34.4961 299.495 34.4961C302.605 34.4961 305.417 35.1628 307.933 36.4961C310.443 37.8294 312.417 39.7409 313.85 42.2253C315.292 44.7148 316.016 47.5951 316.016 50.8711C316.016 54.1367 315.287 57.0117 313.829 59.4961C312.37 61.9857 310.376 63.8919 307.85 65.2253C305.318 66.5586 302.501 67.2253 299.391 67.2253ZM299.391 58.7878C301.251 58.7878 302.834 58.1107 304.141 56.7461C305.443 55.3711 306.1 53.4128 306.1 50.8711C306.1 48.319 305.459 46.3607 304.183 44.9961C302.917 43.6211 301.355 42.9336 299.495 42.9336C297.589 42.9336 296.016 43.6159 294.766 44.9753C293.516 46.3242 292.891 48.2878 292.891 50.8711C292.891 53.4128 293.506 55.3711 294.745 56.7461C295.98 58.1107 297.527 58.7878 299.391 58.7878Z" fill="#141414"/>
<path d="M340.888 58.4967V66.7676H335.909C332.378 66.7676 329.628 65.9082 327.659 64.1842C325.685 62.4499 324.701 59.6217 324.701 55.7051V43.0592H320.805V34.9551H324.701V27.2051H334.43V34.9551H340.826V43.0592H334.43V55.8301C334.43 56.778 334.659 57.4551 335.117 57.8717C335.576 58.2884 336.336 58.4967 337.409 58.4967H340.888Z" fill="#141414"/>
<path d="M387.156 59.7044H372.218L369.843 66.7669H359.635L374.114 26.7461H385.385L399.864 66.7669H389.551L387.156 59.7044ZM384.656 52.1836L379.697 37.5169L374.801 52.1836H384.656Z" fill="#141414"/>
<path d="M415.932 26.7461V66.7669H406.203V26.7461H415.932Z" fill="#141414"/>
</g>
</svg>
