<svg width="493" height="501" viewBox="0 0 493 501" fill="none" xmlns="http://www.w3.org/2000/svg">
<circle cx="251.8" cy="248.801" r="87" stroke="#CBCBF2"/>
<circle cx="251.8" cy="248.801" r="122" stroke="#CBCBF2"/>
<circle cx="251.8" cy="248.801" r="171" stroke="#EEEEFB"/>
<circle cx="251.8" cy="248.801" r="218" stroke="#EEEEFB"/>
<g filter="url(#filter0_d_361_16792)">
<rect x="289.3" y="3.30078" width="60" height="60" rx="5" fill="#FF73B6"/>
</g>
<path d="M325.956 46.957H312.644C309.706 46.957 307.69 46.4154 306.597 45.332C305.503 44.2487 304.956 42.2383 304.956 39.3008V28.6445C304.956 25.707 305.503 23.6914 306.597 22.5977C307.69 21.5039 309.706 20.957 312.644 20.957H325.956C328.894 20.957 330.909 21.5039 332.003 22.5977C333.097 23.6914 333.644 25.707 333.644 28.6445V39.3008C333.644 42.2383 333.097 44.2487 332.003 45.332C330.909 46.4154 328.894 46.957 325.956 46.957ZM312.644 22.957C310.248 22.957 308.701 23.306 308.003 24.0039C307.305 24.7018 306.956 26.2487 306.956 28.6445V39.3008C306.956 41.6758 307.305 43.2122 308.003 43.9102C308.701 44.6081 310.248 44.957 312.644 44.957H325.956C328.352 44.957 329.899 44.6081 330.597 43.9102C331.295 43.2122 331.644 41.6758 331.644 39.3008V28.6445C331.644 26.2487 331.295 24.7018 330.597 24.0039C329.899 23.306 328.352 22.957 325.956 22.957H312.644ZM328.644 29.6445H321.956C321.685 29.6445 321.451 29.5456 321.253 29.3477C321.055 29.1497 320.956 28.9154 320.956 28.6445C320.956 28.3737 321.055 28.1393 321.253 27.9414C321.451 27.7435 321.685 27.6445 321.956 27.6445H328.644C328.914 27.6445 329.149 27.7435 329.347 27.9414C329.545 28.1393 329.644 28.3737 329.644 28.6445C329.644 28.9154 329.545 29.1497 329.347 29.3477C329.149 29.5456 328.914 29.6445 328.644 29.6445ZM328.644 34.957H323.3C323.029 34.957 322.795 34.8581 322.597 34.6602C322.399 34.4622 322.3 34.2279 322.3 33.957C322.3 33.6862 322.399 33.4518 322.597 33.2539C322.795 33.056 323.029 32.957 323.3 32.957H328.644C328.914 32.957 329.149 33.056 329.347 33.2539C329.545 33.4518 329.644 33.6862 329.644 33.957C329.644 34.2279 329.545 34.4622 329.347 34.6602C329.149 34.8581 328.914 34.957 328.644 34.957ZM328.644 40.3008H325.956C325.685 40.3008 325.451 40.2018 325.253 40.0039C325.055 39.806 324.956 39.5716 324.956 39.3008C324.956 39.0299 325.055 38.7956 325.253 38.5977C325.451 38.3997 325.685 38.3008 325.956 38.3008H328.644C328.914 38.3008 329.149 38.3997 329.347 38.5977C329.545 38.7956 329.644 39.0299 329.644 39.3008C329.644 39.5716 329.545 39.806 329.347 40.0039C329.149 40.2018 328.914 40.3008 328.644 40.3008ZM314.644 34.0195C313.706 34.0195 312.899 33.6862 312.222 33.0195C311.545 32.3529 311.206 31.5508 311.206 30.6133C311.206 29.6758 311.545 28.8737 312.222 28.207C312.899 27.5404 313.706 27.207 314.644 27.207C315.581 27.207 316.383 27.5404 317.05 28.207C317.716 28.8737 318.05 29.6758 318.05 30.6133C318.05 31.5508 317.716 32.3529 317.05 33.0195C316.383 33.6862 315.581 34.0195 314.644 34.0195ZM314.644 29.207C314.248 29.207 313.909 29.3424 313.628 29.6133C313.347 29.8841 313.206 30.2174 313.206 30.6133C313.206 30.9883 313.347 31.3164 313.628 31.5977C313.909 31.8789 314.248 32.0195 314.644 32.0195C315.019 32.0195 315.347 31.8789 315.628 31.5977C315.909 31.3164 316.05 30.9883 316.05 30.6133C316.05 30.2174 315.909 29.8841 315.628 29.6133C315.347 29.3424 315.019 29.207 314.644 29.207ZM319.3 40.7383C319.05 40.7383 318.826 40.6549 318.628 40.4883C318.43 40.3216 318.321 40.1029 318.3 39.832C318.216 39.1237 317.92 38.5091 317.409 37.9883C316.899 37.4674 316.279 37.1758 315.55 37.1133C315.237 37.0716 314.93 37.0508 314.628 37.0508C314.326 37.0508 314.019 37.0716 313.706 37.1133C312.977 37.1758 312.352 37.4622 311.831 37.9727C311.31 38.4831 311.008 39.1029 310.925 39.832C310.904 40.1029 310.789 40.3268 310.581 40.5039C310.373 40.681 310.123 40.7591 309.831 40.7383C309.56 40.6966 309.341 40.5716 309.175 40.3633C309.008 40.1549 308.935 39.9154 308.956 39.6445C309.081 38.4362 309.571 37.4049 310.425 36.5508C311.279 35.6966 312.31 35.2174 313.519 35.1133C313.873 35.0716 314.237 35.0508 314.612 35.0508C314.987 35.0508 315.362 35.0716 315.737 35.1133C316.925 35.2174 317.951 35.6966 318.815 36.5508C319.68 37.4049 320.175 38.4362 320.3 39.6445C320.321 39.9154 320.243 40.1549 320.065 40.3633C319.888 40.5716 319.664 40.6966 319.394 40.7383C319.373 40.7383 319.357 40.7383 319.347 40.7383C319.336 40.7383 319.321 40.7383 319.3 40.7383Z" fill="white"/>
<g filter="url(#filter1_d_361_16792)">
<rect x="407.3" y="98.3008" width="60" height="60" rx="5" fill="#3BA55C"/>
</g>
<path d="M437.3 143.301C436.841 143.301 436.383 143.212 435.925 143.035C435.466 142.858 435.06 142.592 434.706 142.238L432.425 139.988C432.154 139.697 431.831 139.478 431.456 139.332C431.081 139.186 430.696 139.113 430.3 139.113H429.3C427.925 139.113 426.748 138.629 425.769 137.66C424.789 136.691 424.3 135.52 424.3 134.145V119.582C424.3 118.228 424.789 117.066 425.769 116.098C426.748 115.129 427.925 114.645 429.3 114.645H445.3C446.675 114.645 447.852 115.129 448.831 116.098C449.81 117.066 450.3 118.228 450.3 119.582V134.145C450.3 135.499 449.81 136.665 448.831 137.645C447.852 138.624 446.675 139.113 445.3 139.113H444.3C443.904 139.113 443.519 139.186 443.144 139.332C442.769 139.478 442.446 139.686 442.175 139.957L439.894 142.207C439.539 142.582 439.133 142.858 438.675 143.035C438.216 143.212 437.758 143.301 437.3 143.301ZM429.3 116.645C428.466 116.645 427.758 116.931 427.175 117.504C426.591 118.077 426.3 118.77 426.3 119.582V134.145C426.3 134.957 426.591 135.655 427.175 136.238C427.758 136.822 428.466 137.113 429.3 137.113H430.3C430.966 137.113 431.607 137.238 432.222 137.488C432.836 137.738 433.373 138.092 433.831 138.551L436.112 140.801C436.446 141.134 436.841 141.301 437.3 141.301C437.758 141.301 438.154 141.134 438.487 140.801L440.769 138.551C441.227 138.092 441.763 137.738 442.378 137.488C442.993 137.238 443.633 137.113 444.3 137.113H445.3C446.133 137.113 446.841 136.822 447.425 136.238C448.008 135.655 448.3 134.957 448.3 134.145V119.582C448.3 118.77 448.008 118.077 447.425 117.504C446.841 116.931 446.133 116.645 445.3 116.645H429.3ZM437.394 125.895C437.373 125.895 437.357 125.895 437.347 125.895C437.336 125.895 437.321 125.895 437.3 125.895C437.279 125.895 437.258 125.895 437.237 125.895C437.216 125.895 437.196 125.895 437.175 125.895C436.196 125.874 435.373 125.514 434.706 124.816C434.039 124.118 433.706 123.28 433.706 122.301C433.706 121.301 434.055 120.452 434.753 119.754C435.451 119.056 436.3 118.707 437.3 118.707C438.3 118.707 439.149 119.056 439.847 119.754C440.545 120.452 440.894 121.301 440.894 122.301C440.894 123.28 440.56 124.118 439.894 124.816C439.227 125.514 438.404 125.874 437.425 125.895C437.425 125.895 437.42 125.895 437.409 125.895C437.399 125.895 437.394 125.895 437.394 125.895ZM437.3 120.707C436.862 120.707 436.487 120.863 436.175 121.176C435.862 121.488 435.706 121.863 435.706 122.301C435.706 122.738 435.852 123.113 436.144 123.426C436.435 123.738 436.8 123.895 437.237 123.895C437.237 123.895 437.253 123.895 437.284 123.895C437.315 123.895 437.352 123.895 437.394 123.895C437.831 123.874 438.19 123.707 438.472 123.395C438.753 123.082 438.894 122.717 438.894 122.301C438.894 121.863 438.737 121.488 438.425 121.176C438.112 120.863 437.737 120.707 437.3 120.707ZM437.3 135.238C436.55 135.238 435.805 135.139 435.065 134.941C434.326 134.743 433.664 134.447 433.081 134.051C432.519 133.676 432.081 133.228 431.769 132.707C431.456 132.186 431.3 131.645 431.3 131.082C431.3 130.499 431.456 129.947 431.769 129.426C432.081 128.905 432.519 128.457 433.081 128.082C434.269 127.29 435.675 126.895 437.3 126.895C438.925 126.895 440.331 127.29 441.519 128.082C442.081 128.457 442.519 128.905 442.831 129.426C443.144 129.947 443.3 130.488 443.3 131.051C443.3 131.634 443.144 132.186 442.831 132.707C442.519 133.228 442.081 133.676 441.519 134.051C440.935 134.447 440.274 134.743 439.534 134.941C438.795 135.139 438.05 135.238 437.3 135.238ZM434.175 129.77C433.883 129.957 433.664 130.165 433.519 130.395C433.373 130.624 433.3 130.853 433.3 131.082C433.3 131.311 433.378 131.54 433.534 131.77C433.69 131.999 433.904 132.207 434.175 132.395C435.029 132.957 436.071 133.238 437.3 133.238C438.529 133.238 439.56 132.957 440.394 132.395C440.685 132.207 440.909 131.999 441.065 131.77C441.222 131.54 441.3 131.311 441.3 131.082C441.3 130.853 441.222 130.624 441.065 130.395C440.909 130.165 440.685 129.957 440.394 129.77C439.56 129.186 438.529 128.895 437.3 128.895C436.071 128.895 435.029 129.186 434.175 129.77Z" fill="white"/>
<g filter="url(#filter2_d_361_16792)">
<rect x="429.3" y="248.301" width="60" height="60" rx="5" fill="#733FE7"/>
</g>
<path d="M459.3 293.301C457.321 293.301 455.466 292.926 453.737 292.176C451.987 291.426 450.466 290.4 449.175 289.098C447.883 287.796 446.852 286.28 446.081 284.551C445.331 282.801 444.956 280.936 444.956 278.957C444.956 276.978 445.331 275.124 446.081 273.395C446.852 271.645 447.883 270.124 449.175 268.832C450.466 267.54 451.987 266.52 453.737 265.77C455.466 265.02 457.321 264.645 459.3 264.645C461.279 264.645 463.133 265.02 464.862 265.77C466.612 266.52 468.133 267.54 469.425 268.832C470.716 270.124 471.748 271.645 472.519 273.395C473.269 275.124 473.644 276.978 473.644 278.957C473.644 280.936 473.269 282.801 472.519 284.551C471.748 286.28 470.716 287.796 469.425 289.098C468.133 290.4 466.612 291.426 464.862 292.176C463.133 292.926 461.279 293.301 459.3 293.301ZM459.3 266.645C457.591 266.645 455.998 266.967 454.519 267.613C453.019 268.259 451.706 269.139 450.581 270.254C449.456 271.368 448.571 272.676 447.925 274.176C447.279 275.676 446.956 277.27 446.956 278.957C446.956 280.665 447.279 282.27 447.925 283.77C448.571 285.27 449.456 286.577 450.581 287.691C451.706 288.806 453.019 289.686 454.519 290.332C455.998 290.978 457.591 291.301 459.3 291.301C461.008 291.301 462.602 290.978 464.081 290.332C465.581 289.686 466.894 288.806 468.019 287.691C469.144 286.577 470.029 285.27 470.675 283.77C471.321 282.27 471.644 280.665 471.644 278.957C471.644 277.27 471.321 275.676 470.675 274.176C470.029 272.676 469.144 271.368 468.019 270.254C466.894 269.139 465.581 268.259 464.081 267.613C462.602 266.967 461.008 266.645 459.3 266.645ZM455.3 291.957H453.956C453.685 291.957 453.451 291.858 453.253 291.66C453.055 291.462 452.956 291.228 452.956 290.957C452.956 290.686 453.05 290.457 453.237 290.27C453.425 290.082 453.654 289.978 453.925 289.957C453.404 288.186 453.019 286.374 452.769 284.52C452.498 282.665 452.362 280.811 452.362 278.957C452.362 277.103 452.498 275.259 452.769 273.426C453.019 271.572 453.404 269.749 453.925 267.957C453.654 267.957 453.425 267.858 453.237 267.66C453.05 267.462 452.956 267.228 452.956 266.957C452.956 266.686 453.055 266.452 453.253 266.254C453.451 266.056 453.685 265.957 453.956 265.957H455.3C455.466 265.957 455.623 265.993 455.769 266.066C455.914 266.139 456.029 266.249 456.112 266.395C456.216 266.52 456.279 266.66 456.3 266.816C456.321 266.973 456.3 267.134 456.237 267.301C455.612 269.176 455.144 271.092 454.831 273.051C454.519 275.009 454.362 276.978 454.362 278.957C454.362 280.936 454.519 282.915 454.831 284.895C455.144 286.853 455.612 288.78 456.237 290.676C456.3 290.822 456.321 290.973 456.3 291.129C456.279 291.285 456.216 291.436 456.112 291.582C456.029 291.686 455.914 291.775 455.769 291.848C455.623 291.921 455.466 291.957 455.3 291.957ZM463.3 291.957C463.237 291.957 463.18 291.957 463.128 291.957C463.076 291.957 463.029 291.947 462.987 291.926C462.716 291.822 462.519 291.65 462.394 291.41C462.269 291.171 462.258 290.915 462.362 290.645C462.987 288.77 463.456 286.842 463.769 284.863C464.081 282.905 464.237 280.936 464.237 278.957C464.237 276.978 464.081 275.009 463.769 273.051C463.456 271.092 462.987 269.165 462.362 267.27C462.279 267.02 462.295 266.77 462.409 266.52C462.524 266.27 462.716 266.103 462.987 266.02C463.258 265.915 463.513 265.926 463.753 266.051C463.993 266.176 464.154 266.374 464.237 266.645C464.904 268.624 465.404 270.645 465.737 272.707C466.071 274.79 466.237 276.874 466.237 278.957C466.237 281.04 466.071 283.113 465.737 285.176C465.404 287.259 464.904 289.29 464.237 291.27C464.175 291.478 464.055 291.645 463.878 291.77C463.701 291.895 463.508 291.957 463.3 291.957ZM459.3 285.895C458.362 285.895 457.435 285.863 456.519 285.801C455.581 285.738 454.654 285.639 453.737 285.504C452.821 285.368 451.914 285.207 451.019 285.02C450.102 284.811 449.196 284.582 448.3 284.332C448.3 284.603 448.201 284.832 448.003 285.02C447.805 285.207 447.571 285.301 447.3 285.301C447.029 285.301 446.795 285.202 446.597 285.004C446.399 284.806 446.3 284.572 446.3 284.301V282.957C446.3 282.811 446.336 282.665 446.409 282.52C446.482 282.374 446.581 282.249 446.706 282.145C446.852 282.061 447.003 282.004 447.159 281.973C447.315 281.941 447.466 281.957 447.612 282.02C449.508 282.645 451.435 283.113 453.394 283.426C455.352 283.738 457.321 283.895 459.3 283.895C461.279 283.895 463.258 283.738 465.237 283.426C467.196 283.113 469.112 282.645 470.987 282.02C471.154 281.957 471.315 281.941 471.472 281.973C471.628 282.004 471.769 282.061 471.894 282.145C472.039 282.249 472.144 282.374 472.206 282.52C472.269 282.665 472.3 282.811 472.3 282.957V284.301C472.3 284.572 472.206 284.806 472.019 285.004C471.831 285.202 471.591 285.301 471.3 285.301C471.029 285.301 470.8 285.207 470.612 285.02C470.425 284.832 470.321 284.603 470.3 284.332C469.404 284.582 468.508 284.811 467.612 285.02C466.696 285.207 465.779 285.368 464.862 285.504C463.946 285.639 463.019 285.738 462.081 285.801C461.164 285.863 460.237 285.895 459.3 285.895ZM471.3 275.957C471.237 275.957 471.18 275.957 471.128 275.957C471.076 275.957 471.029 275.947 470.987 275.926C469.091 275.301 467.164 274.832 465.206 274.52C463.248 274.186 461.279 274.02 459.3 274.02C457.321 274.02 455.341 274.186 453.362 274.52C451.404 274.832 449.487 275.301 447.612 275.926C447.341 276.009 447.081 275.988 446.831 275.863C446.581 275.738 446.414 275.551 446.331 275.301C446.248 275.03 446.269 274.77 446.394 274.52C446.519 274.27 446.716 274.103 446.987 274.02C448.966 273.353 450.987 272.853 453.05 272.52C455.133 272.186 457.216 272.02 459.3 272.02C461.383 272.02 463.456 272.186 465.519 272.52C467.602 272.853 469.633 273.353 471.612 274.02C471.862 274.103 472.05 274.27 472.175 274.52C472.3 274.77 472.321 275.03 472.237 275.301C472.175 275.488 472.055 275.645 471.878 275.77C471.701 275.895 471.508 275.957 471.3 275.957Z" fill="white"/>
<g filter="url(#filter3_d_361_16792)">
<rect x="363.3" y="401.301" width="60" height="60" rx="5" fill="#2A327A"/>
</g>
<path d="M401.112 445.113C400.925 445.113 400.727 445.087 400.519 445.035C400.31 444.983 400.112 444.905 399.925 444.801L394.581 441.613C394.31 441.613 394.034 441.603 393.753 441.582C393.472 441.561 393.196 441.53 392.925 441.488C392.737 441.467 392.576 441.4 392.44 441.285C392.305 441.171 392.196 441.02 392.112 440.832C392.05 440.665 392.034 440.493 392.065 440.316C392.097 440.139 392.175 439.978 392.3 439.832C392.737 439.332 393.071 438.78 393.3 438.176C393.529 437.572 393.644 436.947 393.644 436.301C393.644 435.488 393.477 434.728 393.144 434.02C392.81 433.311 392.357 432.691 391.784 432.16C391.211 431.629 390.539 431.207 389.769 430.895C388.998 430.582 388.175 430.426 387.3 430.426C386.654 430.426 386.024 430.514 385.409 430.691C384.795 430.868 384.216 431.134 383.675 431.488C383.529 431.572 383.373 431.624 383.206 431.645C383.039 431.665 382.873 431.634 382.706 431.551C382.56 431.488 382.435 431.384 382.331 431.238C382.227 431.092 382.164 430.936 382.144 430.77C382.123 430.582 382.107 430.395 382.097 430.207C382.086 430.02 382.081 429.832 382.081 429.645C382.081 427.978 382.414 426.415 383.081 424.957C383.748 423.52 384.659 422.254 385.815 421.16C386.972 420.066 388.331 419.207 389.894 418.582C391.435 417.957 393.081 417.645 394.831 417.645C396.602 417.645 398.258 417.957 399.8 418.582C401.362 419.207 402.722 420.066 403.878 421.16C405.034 422.254 405.946 423.52 406.612 424.957C407.279 426.415 407.612 427.978 407.612 429.645C407.612 430.54 407.508 431.426 407.3 432.301C407.091 433.155 406.795 433.973 406.409 434.754C406.024 435.535 405.539 436.28 404.956 436.988C404.373 437.676 403.716 438.301 402.987 438.863L403.425 442.488C403.487 442.947 403.425 443.379 403.237 443.785C403.05 444.191 402.769 444.52 402.394 444.77C402.206 444.874 402.003 444.957 401.784 445.02C401.565 445.082 401.341 445.113 401.112 445.113ZM394.831 439.613C394.935 439.592 395.029 439.598 395.112 439.629C395.196 439.66 395.279 439.707 395.362 439.77L400.956 443.082C401.019 443.124 401.081 443.139 401.144 443.129C401.206 443.118 401.258 443.103 401.3 443.082C401.341 443.061 401.378 443.025 401.409 442.973C401.44 442.921 401.456 442.842 401.456 442.738L400.925 438.52C400.904 438.332 400.93 438.155 401.003 437.988C401.076 437.822 401.185 437.686 401.331 437.582C402.706 436.624 403.763 435.452 404.503 434.066C405.243 432.681 405.612 431.197 405.612 429.613C405.612 428.238 405.331 426.947 404.769 425.738C404.206 424.509 403.435 423.447 402.456 422.551C401.477 421.655 400.341 420.936 399.05 420.395C397.737 419.874 396.331 419.613 394.831 419.613C393.414 419.613 392.071 419.863 390.8 420.363C389.529 420.842 388.409 421.504 387.44 422.348C386.472 423.191 385.696 424.186 385.112 425.332C384.508 426.478 384.164 427.707 384.081 429.02C384.581 428.811 385.102 428.655 385.644 428.551C386.185 428.447 386.737 428.395 387.3 428.395C388.446 428.395 389.519 428.603 390.519 429.02C391.539 429.436 392.425 429.999 393.175 430.707C393.925 431.415 394.519 432.249 394.956 433.207C395.394 434.165 395.612 435.186 395.612 436.27C395.633 436.853 395.576 437.426 395.44 437.988C395.305 438.551 395.102 439.092 394.831 439.613ZM383.394 446.301C383.227 446.301 383.06 446.275 382.894 446.223C382.727 446.171 382.571 446.103 382.425 446.02C382.112 445.811 381.883 445.551 381.737 445.238C381.591 444.926 381.539 444.592 381.581 444.238L381.831 442.207C380.935 441.457 380.237 440.566 379.737 439.535C379.237 438.504 378.987 437.415 378.987 436.27C378.987 434.978 379.31 433.759 379.956 432.613C380.602 431.467 381.487 430.53 382.612 429.801C383.3 429.342 384.045 428.999 384.847 428.77C385.649 428.54 386.466 428.426 387.3 428.426C388.466 428.426 389.55 428.634 390.55 429.051C391.571 429.447 392.456 430.004 393.206 430.723C393.956 431.441 394.55 432.27 394.987 433.207C395.425 434.165 395.644 435.186 395.644 436.27C395.644 437.145 395.487 438.004 395.175 438.848C394.862 439.691 394.414 440.457 393.831 441.145C393.081 442.061 392.164 442.775 391.081 443.285C389.998 443.796 388.831 444.072 387.581 444.113L384.331 446.051C384.185 446.134 384.034 446.197 383.878 446.238C383.722 446.28 383.56 446.301 383.394 446.301ZM387.3 430.426C386.654 430.426 386.024 430.514 385.409 430.691C384.795 430.868 384.216 431.134 383.675 431.488C382.821 432.03 382.154 432.723 381.675 433.566C381.196 434.41 380.956 435.311 380.956 436.27C380.956 437.207 381.175 438.077 381.612 438.879C382.05 439.681 382.675 440.363 383.487 440.926C383.633 441.03 383.743 441.165 383.815 441.332C383.888 441.499 383.914 441.676 383.894 441.863L383.612 444.145L386.8 442.238C386.883 442.197 386.966 442.165 387.05 442.145C387.133 442.124 387.216 442.113 387.3 442.113C388.279 442.113 389.206 441.91 390.081 441.504C390.956 441.098 391.696 440.54 392.3 439.832C392.737 439.311 393.071 438.749 393.3 438.145C393.529 437.54 393.644 436.915 393.644 436.27C393.644 435.457 393.477 434.697 393.144 433.988C392.81 433.28 392.357 432.66 391.784 432.129C391.211 431.598 390.539 431.186 389.769 430.895C388.998 430.582 388.175 430.426 387.3 430.426Z" fill="white"/>
<g filter="url(#filter4_d_361_16792)">
<rect x="206.3" y="437.301" width="60" height="60" rx="5" fill="#3BA55C"/>
</g>
<path d="M242.956 480.957H229.644C226.706 480.957 224.69 480.415 223.597 479.332C222.503 478.249 221.956 476.238 221.956 473.301V462.645C221.956 459.707 222.503 457.691 223.597 456.598C224.69 455.504 226.706 454.957 229.644 454.957H242.956C245.894 454.957 247.909 455.504 249.003 456.598C250.097 457.691 250.644 459.707 250.644 462.645V473.301C250.644 476.238 250.097 478.249 249.003 479.332C247.909 480.415 245.894 480.957 242.956 480.957ZM229.644 456.957C227.248 456.957 225.701 457.306 225.003 458.004C224.305 458.702 223.956 460.249 223.956 462.645V473.301C223.956 475.676 224.305 477.212 225.003 477.91C225.701 478.608 227.248 478.957 229.644 478.957H242.956C245.352 478.957 246.899 478.608 247.597 477.91C248.295 477.212 248.644 475.676 248.644 473.301V462.645C248.644 460.249 248.295 458.702 247.597 458.004C246.899 457.306 245.352 456.957 242.956 456.957H229.644ZM245.644 463.645H238.956C238.685 463.645 238.451 463.546 238.253 463.348C238.055 463.15 237.956 462.915 237.956 462.645C237.956 462.374 238.055 462.139 238.253 461.941C238.451 461.743 238.685 461.645 238.956 461.645H245.644C245.914 461.645 246.149 461.743 246.347 461.941C246.545 462.139 246.644 462.374 246.644 462.645C246.644 462.915 246.545 463.15 246.347 463.348C246.149 463.546 245.914 463.645 245.644 463.645ZM245.644 468.957H240.3C240.029 468.957 239.795 468.858 239.597 468.66C239.399 468.462 239.3 468.228 239.3 467.957C239.3 467.686 239.399 467.452 239.597 467.254C239.795 467.056 240.029 466.957 240.3 466.957H245.644C245.914 466.957 246.149 467.056 246.347 467.254C246.545 467.452 246.644 467.686 246.644 467.957C246.644 468.228 246.545 468.462 246.347 468.66C246.149 468.858 245.914 468.957 245.644 468.957ZM245.644 474.301H242.956C242.685 474.301 242.451 474.202 242.253 474.004C242.055 473.806 241.956 473.572 241.956 473.301C241.956 473.03 242.055 472.796 242.253 472.598C242.451 472.4 242.685 472.301 242.956 472.301H245.644C245.914 472.301 246.149 472.4 246.347 472.598C246.545 472.796 246.644 473.03 246.644 473.301C246.644 473.572 246.545 473.806 246.347 474.004C246.149 474.202 245.914 474.301 245.644 474.301ZM231.644 468.02C230.706 468.02 229.899 467.686 229.222 467.02C228.545 466.353 228.206 465.551 228.206 464.613C228.206 463.676 228.545 462.874 229.222 462.207C229.899 461.54 230.706 461.207 231.644 461.207C232.581 461.207 233.383 461.54 234.05 462.207C234.716 462.874 235.05 463.676 235.05 464.613C235.05 465.551 234.716 466.353 234.05 467.02C233.383 467.686 232.581 468.02 231.644 468.02ZM231.644 463.207C231.248 463.207 230.909 463.342 230.628 463.613C230.347 463.884 230.206 464.217 230.206 464.613C230.206 464.988 230.347 465.316 230.628 465.598C230.909 465.879 231.248 466.02 231.644 466.02C232.019 466.02 232.347 465.879 232.628 465.598C232.909 465.316 233.05 464.988 233.05 464.613C233.05 464.217 232.909 463.884 232.628 463.613C232.347 463.342 232.019 463.207 231.644 463.207ZM236.3 474.738C236.05 474.738 235.826 474.655 235.628 474.488C235.43 474.322 235.321 474.103 235.3 473.832C235.216 473.124 234.92 472.509 234.409 471.988C233.899 471.467 233.279 471.176 232.55 471.113C232.237 471.072 231.93 471.051 231.628 471.051C231.326 471.051 231.019 471.072 230.706 471.113C229.977 471.176 229.352 471.462 228.831 471.973C228.31 472.483 228.008 473.103 227.925 473.832C227.904 474.103 227.789 474.327 227.581 474.504C227.373 474.681 227.123 474.759 226.831 474.738C226.56 474.697 226.341 474.572 226.175 474.363C226.008 474.155 225.935 473.915 225.956 473.645C226.081 472.436 226.571 471.405 227.425 470.551C228.279 469.697 229.31 469.217 230.519 469.113C230.873 469.072 231.237 469.051 231.612 469.051C231.987 469.051 232.362 469.072 232.737 469.113C233.925 469.217 234.951 469.697 235.815 470.551C236.68 471.405 237.175 472.436 237.3 473.645C237.321 473.915 237.243 474.155 237.065 474.363C236.888 474.572 236.664 474.697 236.394 474.738C236.373 474.738 236.357 474.738 236.347 474.738C236.336 474.738 236.321 474.738 236.3 474.738Z" fill="white"/>
<g filter="url(#filter5_d_361_16792)">
<rect x="66.2998" y="390.301" width="60" height="60" rx="5" fill="#FFB130"/>
</g>
<path d="M93.6436 424.645H88.5811C86.2894 424.645 84.6123 424.113 83.5498 423.051C82.4873 421.988 81.9561 420.311 81.9561 418.02V413.238C81.9561 410.947 82.4873 409.275 83.5498 408.223C84.6123 407.171 86.2894 406.645 88.5811 406.645H93.3623C95.654 406.645 97.3258 407.171 98.3779 408.223C99.43 409.275 99.9561 410.947 99.9561 413.238V418.301C99.9561 418.572 99.8623 418.806 99.6748 419.004C99.4873 419.202 99.2581 419.301 98.9873 419.301C97.3831 419.322 96.2633 419.655 95.6279 420.301C94.9925 420.947 94.6644 422.061 94.6436 423.645C94.6227 423.915 94.5186 424.15 94.3311 424.348C94.1436 424.546 93.9144 424.645 93.6436 424.645ZM88.5811 408.645C86.8519 408.645 85.6488 408.978 84.9717 409.645C84.2946 410.311 83.9561 411.509 83.9561 413.238V418.02C83.9561 419.749 84.2946 420.952 84.9717 421.629C85.6488 422.306 86.8519 422.645 88.5811 422.645H92.6748C92.8415 421.02 93.3571 419.775 94.2217 418.91C95.0863 418.046 96.3311 417.53 97.9561 417.363V413.238C97.9561 411.509 97.6227 410.311 96.9561 409.645C96.2894 408.978 95.0915 408.645 93.3623 408.645H88.5811ZM87.2373 413.801C87.0915 413.801 86.9404 413.764 86.7842 413.691C86.6279 413.618 86.5081 413.52 86.4248 413.395C86.2581 413.165 86.2008 412.91 86.2529 412.629C86.305 412.348 86.4456 412.134 86.6748 411.988C87.1748 411.613 87.7477 411.426 88.3936 411.426C89.0394 411.426 89.6227 411.603 90.1436 411.957C90.3727 412.103 90.5133 412.311 90.5654 412.582C90.6175 412.853 90.5706 413.103 90.4248 413.332C90.2581 413.561 90.0394 413.702 89.7686 413.754C89.4977 413.806 89.2477 413.759 89.0186 413.613C88.8519 413.488 88.6592 413.426 88.4404 413.426C88.2217 413.426 88.0186 413.488 87.8311 413.613C87.7269 413.676 87.6279 413.723 87.5342 413.754C87.4404 413.785 87.3415 413.801 87.2373 413.801ZM92.5811 413.801C92.4144 413.801 92.2581 413.764 92.1123 413.691C91.9665 413.618 91.8519 413.52 91.7686 413.395C91.6019 413.165 91.5394 412.91 91.5811 412.629C91.6227 412.348 91.7581 412.134 91.9873 411.988C92.5081 411.613 93.0915 411.426 93.7373 411.426C94.3831 411.426 94.9665 411.603 95.4873 411.957C95.7165 412.103 95.8571 412.311 95.9092 412.582C95.9613 412.853 95.9144 413.103 95.7686 413.332C95.6019 413.561 95.3831 413.702 95.1123 413.754C94.8415 413.806 94.5915 413.759 94.3623 413.613C94.1748 413.488 93.9717 413.426 93.7529 413.426C93.5342 413.426 93.3415 413.488 93.1748 413.613C93.0706 413.676 92.9665 413.723 92.8623 413.754C92.7581 413.785 92.6644 413.801 92.5811 413.801ZM91.1748 421.207H88.0811C87.6019 421.207 87.1956 421.035 86.8623 420.691C86.529 420.348 86.3623 419.947 86.3623 419.488C86.3623 418.217 86.8154 417.129 87.7217 416.223C88.6279 415.316 89.7061 414.863 90.9561 414.863C91.4769 414.863 91.9873 414.952 92.4873 415.129C92.9873 415.306 93.4352 415.561 93.8311 415.895C94.0602 416.061 94.1904 416.28 94.2217 416.551C94.2529 416.822 94.1852 417.072 94.0186 417.301C93.8311 417.509 93.6019 417.629 93.3311 417.66C93.0602 417.691 92.8206 417.624 92.6123 417.457C92.3831 417.27 92.1279 417.124 91.8467 417.02C91.5654 416.915 91.279 416.863 90.9873 416.863C90.3206 416.863 89.7373 417.087 89.2373 417.535C88.7373 417.983 88.4561 418.54 88.3936 419.207H91.2061C91.4769 419.207 91.7113 419.301 91.9092 419.488C92.1071 419.676 92.2061 419.915 92.2061 420.207C92.2061 420.478 92.1019 420.712 91.8936 420.91C91.6852 421.108 91.4456 421.207 91.1748 421.207ZM104.019 435.301H99.2373C96.9456 435.301 95.2738 434.77 94.2217 433.707C93.1696 432.645 92.6436 430.978 92.6436 428.707V423.645C92.6852 421.52 93.2165 419.941 94.2373 418.91C95.2581 417.879 96.8311 417.342 98.9561 417.301H104.019C106.31 417.301 107.987 417.832 109.05 418.895C110.112 419.957 110.644 421.624 110.644 423.895V428.707C110.644 430.978 110.112 432.645 109.05 433.707C107.987 434.77 106.31 435.301 104.019 435.301ZM98.9561 419.301C97.3727 419.322 96.2633 419.655 95.6279 420.301C94.9925 420.947 94.6644 422.061 94.6436 423.645V428.707C94.6436 430.415 94.9769 431.608 95.6436 432.285C96.3102 432.962 97.5081 433.301 99.2373 433.301H104.019C105.748 433.301 106.951 432.962 107.628 432.285C108.305 431.608 108.644 430.415 108.644 428.707V423.895C108.644 422.186 108.305 420.993 107.628 420.316C106.951 419.639 105.748 419.301 104.019 419.301H98.9561ZM99.0811 424.488C98.7686 424.488 98.4613 424.441 98.1592 424.348C97.8571 424.254 97.5811 424.113 97.3311 423.926C97.1019 423.759 96.9613 423.54 96.9092 423.27C96.8571 422.999 96.9144 422.749 97.0811 422.52C97.2477 422.29 97.4665 422.15 97.7373 422.098C98.0081 422.046 98.2581 422.103 98.4873 422.27C98.6748 422.395 98.8779 422.457 99.0967 422.457C99.3154 422.457 99.5081 422.405 99.6748 422.301C99.904 422.134 100.154 422.077 100.425 422.129C100.696 422.181 100.914 422.322 101.081 422.551C101.227 422.78 101.274 423.03 101.222 423.301C101.17 423.572 101.029 423.78 100.8 423.926C100.55 424.113 100.279 424.254 99.9873 424.348C99.6956 424.441 99.3936 424.488 99.0811 424.488ZM104.425 424.488C104.112 424.488 103.805 424.441 103.503 424.348C103.201 424.254 102.925 424.113 102.675 423.926C102.446 423.759 102.305 423.54 102.253 423.27C102.201 422.999 102.258 422.749 102.425 422.52C102.591 422.29 102.81 422.15 103.081 422.098C103.352 422.046 103.602 422.103 103.831 422.27C103.998 422.395 104.19 422.457 104.409 422.457C104.628 422.457 104.831 422.405 105.019 422.301C105.248 422.134 105.498 422.077 105.769 422.129C106.039 422.181 106.248 422.322 106.394 422.551C106.56 422.78 106.618 423.03 106.565 423.301C106.513 423.572 106.373 423.78 106.144 423.926C105.873 424.113 105.591 424.254 105.3 424.348C105.008 424.441 104.716 424.488 104.425 424.488ZM101.644 431.863C100.373 431.863 99.2842 431.415 98.3779 430.52C97.4717 429.624 97.0186 428.54 97.0186 427.27C97.0186 426.79 97.1904 426.384 97.5342 426.051C97.8779 425.717 98.279 425.551 98.7373 425.551H104.519C104.998 425.551 105.404 425.717 105.737 426.051C106.071 426.384 106.237 426.79 106.237 427.27C106.237 428.54 105.784 429.624 104.878 430.52C103.972 431.415 102.894 431.863 101.644 431.863ZM99.0498 427.551C99.1123 428.197 99.3883 428.743 99.8779 429.191C100.368 429.639 100.956 429.863 101.644 429.863C102.31 429.863 102.888 429.639 103.378 429.191C103.868 428.743 104.144 428.197 104.206 427.551H99.0498Z" fill="white"/>
<g filter="url(#filter6_d_361_16792)">
<rect x="3.2998" y="249.301" width="60" height="60" rx="5" fill="#1677FF"/>
</g>
<path d="M33.3933 293.27C32.4558 293.27 31.5339 293.092 30.6277 292.738C29.7214 292.384 28.9141 291.842 28.2058 291.113L22.1433 285.082C21.4141 284.353 20.862 283.504 20.487 282.535C20.112 281.566 19.9558 280.561 20.0183 279.52L20.3308 272.863C20.3933 271.259 20.987 269.9 22.112 268.785C23.237 267.671 24.6016 267.072 26.2058 266.988L32.862 266.676C33.9037 266.634 34.9089 266.796 35.8777 267.16C36.8464 267.525 37.6954 268.082 38.4245 268.832L44.4558 274.863C45.1849 275.572 45.7266 276.384 46.0808 277.301C46.4349 278.197 46.612 279.118 46.612 280.066C46.612 281.014 46.4349 281.936 46.0808 282.832C45.7266 283.749 45.1849 284.561 44.4558 285.27L38.612 291.113C37.8829 291.842 37.0652 292.384 36.1589 292.738C35.2527 293.092 34.3308 293.27 33.3933 293.27ZM23.5808 283.676L29.612 289.707C30.112 290.207 30.6902 290.592 31.3464 290.863C32.0027 291.134 32.6849 291.27 33.3933 291.27C34.1016 291.27 34.7839 291.134 35.4402 290.863C36.0964 290.592 36.6745 290.207 37.1745 289.707L43.0183 283.832C43.5391 283.332 43.9349 282.759 44.2058 282.113C44.4766 281.467 44.612 280.78 44.612 280.051C44.612 279.342 44.4766 278.66 44.2058 278.004C43.9349 277.348 43.5391 276.77 43.0183 276.27L36.987 270.238C36.4662 269.697 35.8516 269.29 35.1433 269.02C34.4349 268.749 33.7058 268.634 32.9558 268.676L26.2995 268.988C25.1954 269.03 24.2683 269.431 23.5183 270.191C22.7683 270.952 22.362 271.863 22.2995 272.926L21.987 279.613C21.9662 280.363 22.0912 281.092 22.362 281.801C22.6329 282.509 23.0391 283.134 23.5808 283.676ZM29.9558 280.957C28.7683 280.957 27.7527 280.535 26.9089 279.691C26.0652 278.848 25.6433 277.832 25.6433 276.645C25.6433 275.436 26.0652 274.41 26.9089 273.566C27.7527 272.723 28.7683 272.301 29.9558 272.301C31.1641 272.301 32.1902 272.723 33.0339 273.566C33.8777 274.41 34.2995 275.436 34.2995 276.645C34.2995 277.832 33.8777 278.848 33.0339 279.691C32.1902 280.535 31.1641 280.957 29.9558 280.957ZM29.9558 274.301C29.3308 274.301 28.7891 274.53 28.3308 274.988C27.8724 275.447 27.6433 275.999 27.6433 276.645C27.6433 277.27 27.8724 277.811 28.3308 278.27C28.7891 278.728 29.3308 278.957 29.9558 278.957C30.6016 278.957 31.1537 278.728 31.612 278.27C32.0704 277.811 32.2995 277.27 32.2995 276.645C32.2995 275.999 32.0704 275.447 31.612 274.988C31.1537 274.53 30.6016 274.301 29.9558 274.301Z" fill="white"/>
<g filter="url(#filter7_d_361_16792)">
<rect x="20.2998" y="107.301" width="60" height="60" rx="5" fill="#3BA55C"/>
</g>
<path d="M43.2373 126.082C43.2373 125.77 43.3467 125.504 43.5654 125.285C43.7842 125.066 44.0498 124.957 44.3623 124.957H50.2998C50.6123 124.957 50.8779 125.066 51.0967 125.285C51.3154 125.504 51.4248 125.77 51.4248 126.082V132.02C51.4248 132.332 51.3154 132.598 51.0967 132.816C50.8779 133.035 50.6123 133.145 50.2998 133.145C49.9873 133.145 49.7217 133.035 49.5029 132.816C49.2842 132.598 49.1748 132.332 49.1748 132.02V127.207H44.3623C44.0498 127.207 43.7842 127.098 43.5654 126.879C43.3467 126.66 43.2373 126.395 43.2373 126.082ZM41.3936 133.145C40.8727 133.145 40.43 133.327 40.0654 133.691C39.7008 134.056 39.5186 134.488 39.5186 134.988V146.895C39.5186 147.395 39.7008 147.827 40.0654 148.191C40.43 148.556 40.8727 148.738 41.3936 148.738H59.2061C59.7269 148.738 60.1696 148.556 60.5342 148.191C60.8988 147.827 61.0811 147.395 61.0811 146.895V134.988C61.0811 134.488 60.8988 134.056 60.5342 133.691C60.1696 133.327 59.7269 133.145 59.2061 133.145H41.3936ZM37.2998 134.988C37.2998 133.863 37.7008 132.9 38.5029 132.098C39.305 131.296 40.2686 130.895 41.3936 130.895H59.2061C60.3311 130.895 61.2946 131.296 62.0967 132.098C62.8988 132.9 63.2998 133.863 63.2998 134.988V146.895C63.2998 148.02 62.8988 148.978 62.0967 149.77C61.2946 150.561 60.3311 150.957 59.2061 150.957H41.3936C40.2686 150.957 39.305 150.561 38.5029 149.77C37.7008 148.978 37.2998 148.02 37.2998 146.895V134.988ZM45.8311 138.332C46.1436 138.332 46.4092 138.441 46.6279 138.66C46.8467 138.879 46.9561 139.145 46.9561 139.457V142.426C46.9561 142.738 46.8467 143.004 46.6279 143.223C46.4092 143.441 46.1436 143.551 45.8311 143.551C45.5394 143.551 45.2842 143.441 45.0654 143.223C44.8467 143.004 44.7373 142.738 44.7373 142.426V139.457C44.7373 139.145 44.8467 138.879 45.0654 138.66C45.2842 138.441 45.5394 138.332 45.8311 138.332ZM54.7686 138.332C55.0602 138.332 55.3154 138.441 55.5342 138.66C55.7529 138.879 55.8623 139.145 55.8623 139.457V142.426C55.8623 142.738 55.7529 143.004 55.5342 143.223C55.3154 143.441 55.0602 143.551 54.7686 143.551C54.4561 143.551 54.1904 143.441 53.9717 143.223C53.7529 143.004 53.6436 142.738 53.6436 142.426V139.457C53.6436 139.145 53.7529 138.879 53.9717 138.66C54.1904 138.441 54.4561 138.332 54.7686 138.332ZM34.3311 140.926C34.3311 140.634 34.4404 140.379 34.6592 140.16C34.8779 139.941 35.1436 139.832 35.4561 139.832H38.4248C38.7165 139.832 38.9717 139.941 39.1904 140.16C39.4092 140.379 39.5186 140.634 39.5186 140.926C39.5186 141.238 39.4092 141.504 39.1904 141.723C38.9717 141.941 38.7165 142.051 38.4248 142.051H35.4561C35.1436 142.051 34.8779 141.941 34.6592 141.723C34.4404 141.504 34.3311 141.238 34.3311 140.926ZM61.0811 140.926C61.0811 140.634 61.1904 140.379 61.4092 140.16C61.6279 139.941 61.8831 139.832 62.1748 139.832H65.1436C65.4561 139.832 65.7217 139.941 65.9404 140.16C66.1592 140.379 66.2686 140.634 66.2686 140.926C66.2686 141.238 66.1592 141.504 65.9404 141.723C65.7217 141.941 65.4561 142.051 65.1436 142.051H62.1748C61.8831 142.051 61.6279 141.941 61.4092 141.723C61.1904 141.504 61.0811 141.238 61.0811 140.926Z" fill="white"/>
<g filter="url(#filter8_d_361_16792)">
<rect x="134.3" y="11.3008" width="60" height="60" rx="5" fill="#2A327A"/>
</g>
<path d="M168.3 56.3008H160.3C159.425 56.3008 158.618 56.2539 157.878 56.1602C157.138 56.0664 156.456 55.9362 155.831 55.7695C155.602 55.6862 155.42 55.5456 155.284 55.3477C155.149 55.1497 155.091 54.9362 155.112 54.707C155.196 53.707 155.498 52.7799 156.019 51.9258C156.539 51.0508 157.211 50.2956 158.034 49.6602C158.857 49.0247 159.81 48.5195 160.894 48.1445C161.956 47.7695 163.091 47.582 164.3 47.582C165.508 47.582 166.644 47.7695 167.706 48.1445C168.789 48.5195 169.743 49.0247 170.565 49.6602C171.388 50.2956 172.06 51.0508 172.581 51.9258C173.102 52.7799 173.404 53.707 173.487 54.707C173.508 54.957 173.451 55.1758 173.315 55.3633C173.18 55.5508 172.998 55.6862 172.769 55.7695C172.144 55.9362 171.461 56.0664 170.722 56.1602C169.982 56.2539 169.175 56.3008 168.3 56.3008ZM157.269 54.0508C157.706 54.1341 158.175 54.1966 158.675 54.2383C159.175 54.2799 159.716 54.3008 160.3 54.3008H168.3C168.883 54.3008 169.425 54.2799 169.925 54.2383C170.425 54.1966 170.894 54.1341 171.331 54.0508C170.977 52.7591 170.144 51.6914 168.831 50.8477C167.519 50.0039 166.008 49.582 164.3 49.582C162.591 49.582 161.081 50.0039 159.769 50.8477C158.456 51.6914 157.623 52.7591 157.269 54.0508ZM152.425 30.082C153.321 29.207 154.43 28.582 155.753 28.207C157.076 27.832 158.591 27.6445 160.3 27.6445H168.3C170.008 27.6445 171.524 27.832 172.847 28.207C174.17 28.582 175.279 29.207 176.175 30.082C177.071 30.9779 177.706 32.0872 178.081 33.4102C178.456 34.7331 178.644 36.2487 178.644 37.957V45.957C178.644 47.2695 178.539 48.4622 178.331 49.5352C178.123 50.6081 177.779 51.5612 177.3 52.3945C176.8 53.2487 176.17 53.9518 175.409 54.5039C174.649 55.056 173.769 55.4779 172.769 55.7695C172.623 55.8112 172.477 55.8164 172.331 55.7852C172.185 55.7539 172.05 55.6966 171.925 55.6133C171.8 55.5299 171.701 55.4258 171.628 55.3008C171.555 55.1758 171.508 55.0299 171.487 54.8633C171.425 54.1758 171.206 53.5091 170.831 52.8633C170.456 52.2383 169.951 51.681 169.315 51.1914C168.68 50.7018 167.935 50.3112 167.081 50.0195C166.227 49.7279 165.3 49.582 164.3 49.582C163.3 49.582 162.373 49.7279 161.519 50.0195C160.664 50.3112 159.92 50.7018 159.284 51.1914C158.649 51.681 158.144 52.2383 157.769 52.8633C157.394 53.5091 157.175 54.1758 157.112 54.8633C157.091 55.0299 157.045 55.1758 156.972 55.3008C156.899 55.4258 156.8 55.5299 156.675 55.6133C156.55 55.6966 156.414 55.7539 156.269 55.7852C156.123 55.8164 155.977 55.8112 155.831 55.7695C154.831 55.4779 153.951 55.056 153.19 54.5039C152.43 53.9518 151.8 53.2487 151.3 52.3945C150.821 51.5612 150.477 50.6081 150.269 49.5352C150.06 48.4622 149.956 47.2695 149.956 45.957V37.957C149.956 36.2487 150.144 34.7331 150.519 33.4102C150.894 32.0872 151.529 30.9779 152.425 30.082ZM153.831 31.5195C153.227 32.1237 152.763 32.9466 152.44 33.9883C152.118 35.0299 151.956 36.3529 151.956 37.957V45.957C151.956 47.1862 152.05 48.2435 152.237 49.1289C152.425 50.0143 152.696 50.7695 153.05 51.3945C153.3 51.8529 153.618 52.2539 154.003 52.5977C154.388 52.9414 154.831 53.2279 155.331 53.457C155.581 52.582 155.998 51.7904 156.581 51.082C157.144 50.3529 157.826 49.7331 158.628 49.2227C159.43 48.7122 160.31 48.3112 161.269 48.0195C162.248 47.7279 163.258 47.582 164.3 47.582C165.341 47.582 166.352 47.7279 167.331 48.0195C168.289 48.3112 169.17 48.7122 169.972 49.2227C170.774 49.7331 171.456 50.3529 172.019 51.082C172.602 51.7904 173.019 52.582 173.269 53.457C173.769 53.2279 174.211 52.9414 174.597 52.5977C174.982 52.2539 175.3 51.8529 175.55 51.3945C175.904 50.7695 176.175 50.0143 176.362 49.1289C176.55 48.2435 176.644 47.1862 176.644 45.957V37.957C176.644 36.3529 176.482 35.0299 176.159 33.9883C175.836 32.9466 175.373 32.1237 174.769 31.5195C174.144 30.8945 173.315 30.4258 172.284 30.1133C171.253 29.8008 169.925 29.6445 168.3 29.6445H160.3C158.675 29.6445 157.347 29.8008 156.315 30.1133C155.284 30.4258 154.456 30.8945 153.831 31.5195ZM164.3 36.3008C163.258 36.3008 162.368 36.6706 161.628 37.4102C160.888 38.1497 160.519 39.0404 160.519 40.082C160.519 41.1237 160.888 42.0143 161.628 42.7539C162.368 43.4935 163.258 43.8633 164.3 43.8633C165.341 43.8633 166.232 43.4935 166.972 42.7539C167.711 42.0143 168.081 41.1237 168.081 40.082C168.081 39.0404 167.711 38.1497 166.972 37.4102C166.232 36.6706 165.341 36.3008 164.3 36.3008ZM158.519 40.082C158.519 38.4779 159.081 37.1133 160.206 35.9883C161.331 34.8633 162.696 34.3008 164.3 34.3008C165.904 34.3008 167.269 34.8633 168.394 35.9883C169.519 37.1133 170.081 38.4779 170.081 40.082C170.081 41.6654 169.519 43.0247 168.394 44.1602C167.269 45.2956 165.904 45.8633 164.3 45.8633C162.696 45.8633 161.331 45.2956 160.206 44.1602C159.081 43.0247 158.519 41.6654 158.519 40.082ZM164.3 45.8633C162.716 45.8633 161.357 45.2956 160.222 44.1602C159.086 43.0247 158.519 41.6654 158.519 40.082C158.519 38.4779 159.086 37.1133 160.222 35.9883C161.357 34.8633 162.716 34.3008 164.3 34.3008C165.883 34.3008 167.243 34.8633 168.378 35.9883C169.513 37.1133 170.081 38.4779 170.081 40.082C170.081 41.6654 169.513 43.0247 168.378 44.1602C167.243 45.2956 165.883 45.8633 164.3 45.8633ZM164.3 36.3008C163.258 36.3008 162.368 36.6706 161.628 37.4102C160.888 38.1497 160.519 39.0404 160.519 40.082C160.519 41.1237 160.888 42.0143 161.628 42.7539C162.368 43.4935 163.258 43.8633 164.3 43.8633C165.341 43.8633 166.232 43.4935 166.972 42.7539C167.711 42.0143 168.081 41.1237 168.081 40.082C168.081 39.0404 167.711 38.1497 166.972 37.4102C166.232 36.6706 165.341 36.3008 164.3 36.3008Z" fill="white"/>
<rect x="176.3" y="172.301" width="152" height="152" rx="76" fill="#5856D6"/>
<rect x="176.3" y="172.301" width="152" height="152" rx="76" stroke="white" stroke-width="8"/>
<g filter="url(#filter9_dd_361_16792)">
<rect x="172.3" y="168.301" width="160" height="160" rx="80" fill="white" fill-opacity="0.01" shape-rendering="crispEdges"/>
</g>
<mask id="mask0_361_16792" style="mask-type:luminance" maskUnits="userSpaceOnUse" x="219" y="206" width="65" height="66">
<path d="M219.3 206.301H283.295V271.123H219.3V206.301Z" fill="white"/>
</mask>
<g mask="url(#mask0_361_16792)">
<path d="M240.378 265.018C232.139 260.31 226.578 251.369 226.578 241.111C226.578 225.951 238.724 213.664 253.705 213.664C261.989 213.664 269.401 217.417 274.376 223.337H283.295C277.295 213.134 266.289 206.301 253.705 206.301C234.705 206.301 219.3 221.886 219.3 241.111C219.3 253.856 226.073 264.995 236.171 271.06L240.378 265.018Z" fill="white"/>
</g>
<mask id="mask1_361_16792" style="mask-type:luminance" maskUnits="userSpaceOnUse" x="243" y="266" width="38" height="23">
<path d="M243.954 266.289H280.876V288.784H243.954V266.289Z" fill="white"/>
</mask>
<g mask="url(#mask1_361_16792)">
<path d="M261.748 267.331C261.444 267.426 261.144 267.516 260.836 267.598L243.991 274.513C245.14 274.852 246.316 275.137 247.509 275.359L280.837 289.03L265.047 266.363C263.97 266.757 262.87 267.082 261.748 267.331Z" fill="white"/>
</g>
<path d="M256.267 259.889C266.08 259.889 274.033 251.839 274.033 241.912C274.033 231.985 266.08 223.934 256.267 223.934C250.84 223.934 245.985 226.395 242.726 230.271H236.883C240.817 223.591 248.023 219.113 256.267 219.113C268.713 219.113 278.803 229.321 278.803 241.912C278.803 253.101 270.832 262.408 260.326 264.344L238.497 273.299L248.944 258.297C251.179 259.319 253.656 259.889 256.267 259.889Z" fill="white"/>
<path d="M249.517 241.114C249.517 242.746 248.207 244.067 246.593 244.067C244.984 244.067 243.674 242.746 243.674 241.114C243.674 239.481 244.984 238.16 246.593 238.16C248.207 238.16 249.517 239.481 249.517 241.114Z" fill="white"/>
<path d="M258.309 241.114C258.309 242.746 256.999 244.067 255.39 244.067C253.776 244.067 252.466 242.746 252.466 241.114C252.466 239.481 253.776 238.16 255.39 238.16C256.999 238.16 258.309 239.481 258.309 241.114Z" fill="white"/>
<path d="M267.103 241.114C267.103 242.746 265.798 244.067 264.184 244.067C262.57 244.067 261.265 242.746 261.265 241.114C261.265 239.481 262.57 238.16 264.184 238.16C265.798 238.16 267.103 239.481 267.103 241.114Z" fill="white"/>
<defs>
<filter id="filter0_d_361_16792" x="286" y="0.000781298" width="66.6" height="66.6" filterUnits="userSpaceOnUse" color-interpolation-filters="sRGB">
<feFlood flood-opacity="0" result="BackgroundImageFix"/>
<feColorMatrix in="SourceAlpha" type="matrix" values="0 0 0 0 0 0 0 0 0 0 0 0 0 0 0 0 0 0 127 0" result="hardAlpha"/>
<feOffset/>
<feGaussianBlur stdDeviation="1.65"/>
<feComposite in2="hardAlpha" operator="out"/>
<feColorMatrix type="matrix" values="0 0 0 0 0 0 0 0 0 0 0 0 0 0 0 0 0 0 0.25 0"/>
<feBlend mode="normal" in2="BackgroundImageFix" result="effect1_dropShadow_361_16792"/>
<feBlend mode="normal" in="SourceGraphic" in2="effect1_dropShadow_361_16792" result="shape"/>
</filter>
<filter id="filter1_d_361_16792" x="404" y="95.0008" width="66.6" height="66.6" filterUnits="userSpaceOnUse" color-interpolation-filters="sRGB">
<feFlood flood-opacity="0" result="BackgroundImageFix"/>
<feColorMatrix in="SourceAlpha" type="matrix" values="0 0 0 0 0 0 0 0 0 0 0 0 0 0 0 0 0 0 127 0" result="hardAlpha"/>
<feOffset/>
<feGaussianBlur stdDeviation="1.65"/>
<feComposite in2="hardAlpha" operator="out"/>
<feColorMatrix type="matrix" values="0 0 0 0 0 0 0 0 0 0 0 0 0 0 0 0 0 0 0.25 0"/>
<feBlend mode="normal" in2="BackgroundImageFix" result="effect1_dropShadow_361_16792"/>
<feBlend mode="normal" in="SourceGraphic" in2="effect1_dropShadow_361_16792" result="shape"/>
</filter>
<filter id="filter2_d_361_16792" x="426" y="245.001" width="66.6" height="66.6" filterUnits="userSpaceOnUse" color-interpolation-filters="sRGB">
<feFlood flood-opacity="0" result="BackgroundImageFix"/>
<feColorMatrix in="SourceAlpha" type="matrix" values="0 0 0 0 0 0 0 0 0 0 0 0 0 0 0 0 0 0 127 0" result="hardAlpha"/>
<feOffset/>
<feGaussianBlur stdDeviation="1.65"/>
<feComposite in2="hardAlpha" operator="out"/>
<feColorMatrix type="matrix" values="0 0 0 0 0 0 0 0 0 0 0 0 0 0 0 0 0 0 0.25 0"/>
<feBlend mode="normal" in2="BackgroundImageFix" result="effect1_dropShadow_361_16792"/>
<feBlend mode="normal" in="SourceGraphic" in2="effect1_dropShadow_361_16792" result="shape"/>
</filter>
<filter id="filter3_d_361_16792" x="360" y="398.001" width="66.6" height="66.6" filterUnits="userSpaceOnUse" color-interpolation-filters="sRGB">
<feFlood flood-opacity="0" result="BackgroundImageFix"/>
<feColorMatrix in="SourceAlpha" type="matrix" values="0 0 0 0 0 0 0 0 0 0 0 0 0 0 0 0 0 0 127 0" result="hardAlpha"/>
<feOffset/>
<feGaussianBlur stdDeviation="1.65"/>
<feComposite in2="hardAlpha" operator="out"/>
<feColorMatrix type="matrix" values="0 0 0 0 0 0 0 0 0 0 0 0 0 0 0 0 0 0 0.25 0"/>
<feBlend mode="normal" in2="BackgroundImageFix" result="effect1_dropShadow_361_16792"/>
<feBlend mode="normal" in="SourceGraphic" in2="effect1_dropShadow_361_16792" result="shape"/>
</filter>
<filter id="filter4_d_361_16792" x="203" y="434.001" width="66.6" height="66.6" filterUnits="userSpaceOnUse" color-interpolation-filters="sRGB">
<feFlood flood-opacity="0" result="BackgroundImageFix"/>
<feColorMatrix in="SourceAlpha" type="matrix" values="0 0 0 0 0 0 0 0 0 0 0 0 0 0 0 0 0 0 127 0" result="hardAlpha"/>
<feOffset/>
<feGaussianBlur stdDeviation="1.65"/>
<feComposite in2="hardAlpha" operator="out"/>
<feColorMatrix type="matrix" values="0 0 0 0 0 0 0 0 0 0 0 0 0 0 0 0 0 0 0.25 0"/>
<feBlend mode="normal" in2="BackgroundImageFix" result="effect1_dropShadow_361_16792"/>
<feBlend mode="normal" in="SourceGraphic" in2="effect1_dropShadow_361_16792" result="shape"/>
</filter>
<filter id="filter5_d_361_16792" x="62.9998" y="387.001" width="66.6" height="66.6" filterUnits="userSpaceOnUse" color-interpolation-filters="sRGB">
<feFlood flood-opacity="0" result="BackgroundImageFix"/>
<feColorMatrix in="SourceAlpha" type="matrix" values="0 0 0 0 0 0 0 0 0 0 0 0 0 0 0 0 0 0 127 0" result="hardAlpha"/>
<feOffset/>
<feGaussianBlur stdDeviation="1.65"/>
<feComposite in2="hardAlpha" operator="out"/>
<feColorMatrix type="matrix" values="0 0 0 0 0 0 0 0 0 0 0 0 0 0 0 0 0 0 0.25 0"/>
<feBlend mode="normal" in2="BackgroundImageFix" result="effect1_dropShadow_361_16792"/>
<feBlend mode="normal" in="SourceGraphic" in2="effect1_dropShadow_361_16792" result="shape"/>
</filter>
<filter id="filter6_d_361_16792" x="-0.000195265" y="246.001" width="66.6" height="66.6" filterUnits="userSpaceOnUse" color-interpolation-filters="sRGB">
<feFlood flood-opacity="0" result="BackgroundImageFix"/>
<feColorMatrix in="SourceAlpha" type="matrix" values="0 0 0 0 0 0 0 0 0 0 0 0 0 0 0 0 0 0 127 0" result="hardAlpha"/>
<feOffset/>
<feGaussianBlur stdDeviation="1.65"/>
<feComposite in2="hardAlpha" operator="out"/>
<feColorMatrix type="matrix" values="0 0 0 0 0 0 0 0 0 0 0 0 0 0 0 0 0 0 0.25 0"/>
<feBlend mode="normal" in2="BackgroundImageFix" result="effect1_dropShadow_361_16792"/>
<feBlend mode="normal" in="SourceGraphic" in2="effect1_dropShadow_361_16792" result="shape"/>
</filter>
<filter id="filter7_d_361_16792" x="16.9998" y="104.001" width="66.6" height="66.6" filterUnits="userSpaceOnUse" color-interpolation-filters="sRGB">
<feFlood flood-opacity="0" result="BackgroundImageFix"/>
<feColorMatrix in="SourceAlpha" type="matrix" values="0 0 0 0 0 0 0 0 0 0 0 0 0 0 0 0 0 0 127 0" result="hardAlpha"/>
<feOffset/>
<feGaussianBlur stdDeviation="1.65"/>
<feComposite in2="hardAlpha" operator="out"/>
<feColorMatrix type="matrix" values="0 0 0 0 0 0 0 0 0 0 0 0 0 0 0 0 0 0 0.25 0"/>
<feBlend mode="normal" in2="BackgroundImageFix" result="effect1_dropShadow_361_16792"/>
<feBlend mode="normal" in="SourceGraphic" in2="effect1_dropShadow_361_16792" result="shape"/>
</filter>
<filter id="filter8_d_361_16792" x="131" y="8.00078" width="66.6" height="66.6" filterUnits="userSpaceOnUse" color-interpolation-filters="sRGB">
<feFlood flood-opacity="0" result="BackgroundImageFix"/>
<feColorMatrix in="SourceAlpha" type="matrix" values="0 0 0 0 0 0 0 0 0 0 0 0 0 0 0 0 0 0 127 0" result="hardAlpha"/>
<feOffset/>
<feGaussianBlur stdDeviation="1.65"/>
<feComposite in2="hardAlpha" operator="out"/>
<feColorMatrix type="matrix" values="0 0 0 0 0 0 0 0 0 0 0 0 0 0 0 0 0 0 0.25 0"/>
<feBlend mode="normal" in2="BackgroundImageFix" result="effect1_dropShadow_361_16792"/>
<feBlend mode="normal" in="SourceGraphic" in2="effect1_dropShadow_361_16792" result="shape"/>
</filter>
<filter id="filter9_dd_361_16792" x="152.3" y="168.301" width="200" height="200" filterUnits="userSpaceOnUse" color-interpolation-filters="sRGB">
<feFlood flood-opacity="0" result="BackgroundImageFix"/>
<feColorMatrix in="SourceAlpha" type="matrix" values="0 0 0 0 0 0 0 0 0 0 0 0 0 0 0 0 0 0 127 0" result="hardAlpha"/>
<feMorphology radius="6" operator="erode" in="SourceAlpha" result="effect1_dropShadow_361_16792"/>
<feOffset dy="8"/>
<feGaussianBlur stdDeviation="5"/>
<feComposite in2="hardAlpha" operator="out"/>
<feColorMatrix type="matrix" values="0 0 0 0 0 0 0 0 0 0 0 0 0 0 0 0 0 0 0.1 0"/>
<feBlend mode="normal" in2="BackgroundImageFix" result="effect1_dropShadow_361_16792"/>
<feColorMatrix in="SourceAlpha" type="matrix" values="0 0 0 0 0 0 0 0 0 0 0 0 0 0 0 0 0 0 127 0" result="hardAlpha"/>
<feMorphology radius="5" operator="erode" in="SourceAlpha" result="effect2_dropShadow_361_16792"/>
<feOffset dy="20"/>
<feGaussianBlur stdDeviation="12.5"/>
<feComposite in2="hardAlpha" operator="out"/>
<feColorMatrix type="matrix" values="0 0 0 0 0 0 0 0 0 0 0 0 0 0 0 0 0 0 0.1 0"/>
<feBlend mode="normal" in2="effect1_dropShadow_361_16792" result="effect2_dropShadow_361_16792"/>
<feBlend mode="normal" in="SourceGraphic" in2="effect2_dropShadow_361_16792" result="shape"/>
</filter>
</defs>
</svg>
