<svg width="1440" height="618" viewBox="0 0 1440 618" fill="none" xmlns="http://www.w3.org/2000/svg">
<path d="M-242.77 0H1682.77C1682.77 0 1993.79 170.968 1682.77 359C1516.89 459.284 1454 462 1244.5 403.345C1035 344.691 948.108 510 720 510C491.892 510 396.521 423.579 188.471 446.316C-19.5796 469.053 -76.8943 623.442 -242.77 523.158C-553.787 335.126 -242.77 0 -242.77 0Z" fill="#302F76"/>
<rect opacity="0.06" x="334.141" y="282.356" width="162.632" height="162.632" rx="22.7893" transform="rotate(120 334.141 282.356)" fill="white"/>
<rect opacity="0.06" x="174.021" y="411.846" width="162.632" height="162.632" rx="22.7893" transform="rotate(120 174.021 411.846)" fill="white"/>
<rect opacity="0.06" x="7.56934" y="315.744" width="162.632" height="162.632" rx="22.7893" transform="rotate(120 7.56934 315.744)" fill="white"/>
<rect opacity="0.06" x="167.69" y="186.255" width="162.632" height="162.632" rx="22.7893" transform="rotate(120 167.69 186.255)" fill="white"/>
<rect opacity="0.06" x="1556.02" y="213.846" width="162.632" height="162.632" rx="22.7893" transform="rotate(120 1556.02 213.846)" fill="white"/>
<rect opacity="0.06" x="1389.57" y="117.745" width="162.632" height="162.632" rx="22.7893" transform="rotate(120 1389.57 117.745)" fill="white"/>
<rect opacity="0.06" x="1549.69" y="-11.7449" width="162.632" height="162.632" rx="22.7893" transform="rotate(120 1549.69 -11.7449)" fill="white"/>
</svg>
